<svg xmlns="http://www.w3.org/2000/svg" width="960" height="560" viewBox="0 0 960 560">
  <rect width="960" height="560" fill="#f8fafc"/>
  <text x="92" y="36" font-family="system-ui,sans-serif" font-size="22" font-weight="700" fill="#0f172a">Planar phase and total medians</text>
  <text x="92" y="58" font-family="system-ui,sans-serif" font-size="12" fill="#475569">bundle 20260715T192942Z-08d0ad77-standard · successful repetitions only</text>
  <text x="92" y="76" font-family="system-ui,sans-serif" font-size="10" fill="#64748b">Each bar is an independent median; phase medians are not stacked because medians are not additive.</text>
  <line x1="92" y1="464" x2="924" y2="464" stroke="#64748b"/>
  <line x1="92" y1="94" x2="92" y2="464" stroke="#64748b"/>
  <line x1="92" y1="464.00" x2="924" y2="464.00" stroke="#e2e8f0"/>
  <text x="82" y="468.00" text-anchor="end" font-family="ui-monospace,monospace" font-size="11" fill="#475569">0.0000s</text>
  <line x1="92" y1="390.00" x2="924" y2="390.00" stroke="#e2e8f0"/>
  <text x="82" y="394.00" text-anchor="end" font-family="ui-monospace,monospace" font-size="11" fill="#475569">0.0227s</text>
  <line x1="92" y1="316.00" x2="924" y2="316.00" stroke="#e2e8f0"/>
  <text x="82" y="320.00" text-anchor="end" font-family="ui-monospace,monospace" font-size="11" fill="#475569">0.0453s</text>
  <line x1="92" y1="242.00" x2="924" y2="242.00" stroke="#e2e8f0"/>
  <text x="82" y="246.00" text-anchor="end" font-family="ui-monospace,monospace" font-size="11" fill="#475569">0.0680s</text>
  <line x1="92" y1="168.00" x2="924" y2="168.00" stroke="#e2e8f0"/>
  <text x="82" y="172.00" text-anchor="end" font-family="ui-monospace,monospace" font-size="11" fill="#475569">0.0907s</text>
  <line x1="92" y1="94.00" x2="924" y2="94.00" stroke="#e2e8f0"/>
  <text x="82" y="98.00" text-anchor="end" font-family="ui-monospace,monospace" font-size="11" fill="#475569">0.1134s</text>
  <rect x="111.97" y="462.73" width="29.37" height="1.27" fill="#2563eb"><title>triangulation median: 0.000387889s</title></rect>
  <rect x="144.33" y="463.95" width="29.37" height="0.05" fill="#14b8a6"><title>voronoi median: 0.000015485s</title></rect>
  <rect x="176.70" y="463.13" width="29.37" height="0.87" fill="#f59e0b"><title>validation median: 0.000265632s</title></rect>
  <rect x="209.07" y="461.77" width="29.37" height="2.23" fill="#0f172a"><title>total median: 0.000683440s</title></rect>
  <text x="223.75" y="453.77" text-anchor="middle" font-family="ui-monospace,monospace" font-size="11" fill="#0f172a">total 0.000683s</text>
  <text x="175.20" y="487" text-anchor="middle" font-family="system-ui,sans-serif" font-size="12" fill="#0f172a">uniform-n100</text>
  <text x="175.20" y="504" text-anchor="middle" font-family="system-ui,sans-serif" font-size="10" fill="#64748b">10/10 ok</text>
  <rect x="278.37" y="457.63" width="29.37" height="6.37" fill="#2563eb"><title>triangulation median: 0.001950357s</title></rect>
  <rect x="310.73" y="463.89" width="29.37" height="0.11" fill="#14b8a6"><title>voronoi median: 0.000033243s</title></rect>
  <rect x="343.10" y="457.86" width="29.37" height="6.14" fill="#f59e0b"><title>validation median: 0.001882658s</title></rect>
  <rect x="375.47" y="451.35" width="29.37" height="12.65" fill="#0f172a"><title>total median: 0.003874628s</title></rect>
  <text x="390.15" y="443.35" text-anchor="middle" font-family="ui-monospace,monospace" font-size="11" fill="#0f172a">total 0.003875s</text>
  <text x="341.60" y="487" text-anchor="middle" font-family="system-ui,sans-serif" font-size="12" fill="#0f172a">uniform-n300</text>
  <text x="341.60" y="504" text-anchor="middle" font-family="system-ui,sans-serif" font-size="10" fill="#64748b">10/10 ok</text>
  <rect x="444.77" y="424.97" width="29.37" height="39.03" fill="#2563eb"><title>triangulation median: 0.011959072s</title></rect>
  <rect x="477.13" y="463.86" width="29.37" height="0.14" fill="#14b8a6"><title>voronoi median: 0.000044349s</title></rect>
  <rect x="509.50" y="416.00" width="29.37" height="48.00" fill="#f59e0b"><title>validation median: 0.014706980s</title></rect>
  <rect x="541.87" y="376.83" width="29.37" height="87.17" fill="#0f172a"><title>total median: 0.026710402s</title></rect>
  <text x="556.55" y="368.83" text-anchor="middle" font-family="ui-monospace,monospace" font-size="11" fill="#0f172a">total 0.026710s</text>
  <text x="508.00" y="487" text-anchor="middle" font-family="system-ui,sans-serif" font-size="12" fill="#0f172a">uniform-n1000</text>
  <text x="508.00" y="504" text-anchor="middle" font-family="system-ui,sans-serif" font-size="10" fill="#64748b">10/10 ok</text>
  <rect x="611.17" y="408.05" width="29.37" height="55.95" fill="#2563eb"><title>triangulation median: 0.017143827s</title></rect>
  <rect x="643.53" y="463.84" width="29.37" height="0.16" fill="#14b8a6"><title>voronoi median: 0.000048921s</title></rect>
  <rect x="675.90" y="388.35" width="29.37" height="75.65" fill="#f59e0b"><title>validation median: 0.023178470s</title></rect>
  <rect x="708.27" y="332.52" width="29.37" height="131.48" fill="#0f172a"><title>total median: 0.040287180s</title></rect>
  <text x="722.95" y="324.52" text-anchor="middle" font-family="ui-monospace,monospace" font-size="11" fill="#0f172a">total 0.040287s</text>
  <text x="674.40" y="487" text-anchor="middle" font-family="system-ui,sans-serif" font-size="12" fill="#0f172a">uniform-n1500</text>
  <text x="674.40" y="504" text-anchor="middle" font-family="system-ui,sans-serif" font-size="10" fill="#64748b">10/10 ok</text>
  <rect x="777.57" y="318.81" width="29.37" height="145.19" fill="#2563eb"><title>triangulation median: 0.044487760s</title></rect>
  <rect x="809.93" y="463.78" width="29.37" height="0.22" fill="#14b8a6"><title>voronoi median: 0.000067865s</title></rect>
  <rect x="842.30" y="240.66" width="29.37" height="223.34" fill="#f59e0b"><title>validation median: 0.068432646s</title></rect>
  <rect x="874.67" y="94.00" width="29.37" height="370.00" fill="#0f172a"><title>total median: 0.113368872s</title></rect>
  <text x="889.35" y="106.00" text-anchor="middle" font-family="ui-monospace,monospace" font-size="11" fill="#0f172a">total 0.113369s</text>
  <text x="840.80" y="487" text-anchor="middle" font-family="system-ui,sans-serif" font-size="12" fill="#0f172a">uniform-n2500</text>
  <text x="840.80" y="504" text-anchor="middle" font-family="system-ui,sans-serif" font-size="10" fill="#64748b">10/10 ok</text>
  <rect x="92" y="525" width="12" height="12" rx="2" fill="#2563eb"/>
  <text x="110" y="535" font-family="system-ui,sans-serif" font-size="12" fill="#334155">triangulation</text>
  <rect x="242" y="525" width="12" height="12" rx="2" fill="#14b8a6"/>
  <text x="260" y="535" font-family="system-ui,sans-serif" font-size="12" fill="#334155">voronoi</text>
  <rect x="392" y="525" width="12" height="12" rx="2" fill="#f59e0b"/>
  <text x="410" y="535" font-family="system-ui,sans-serif" font-size="12" fill="#334155">validation</text>
  <rect x="542" y="525" width="12" height="12" rx="2" fill="#0f172a"/>
  <text x="560" y="535" font-family="system-ui,sans-serif" font-size="12" fill="#334155">compute total</text>
</svg>
