<svg xmlns="http://www.w3.org/2000/svg" width="1400" height="1400" viewBox="0 0 1400 1400">
<!-- seed: 42; layers: delaunay -->
<!-- generated by: ./build/development/normal/portfolio_export_driver &#45;&#45;seed=42 &#45;&#45;count=300 &#45;&#45;out-dir=artifacts (&#45; is an escaped '-') -->
<!-- Delaunay triangulation and Voronoi diagram computed by this repo's C++ engine; this script only renders. -->
<desc>seed 42; generated by: ./build/development/normal/portfolio_export_driver --seed=42 --count=300 --out-dir=artifacts</desc>
<defs><clipPath id="viewport"><rect x="0" y="0" width="1400" height="1400"/></clipPath></defs>
<rect width="1400" height="1400" fill="#FBFCFD"/>
<g clip-path="url(#viewport)">
<g stroke="#1B1B17" stroke-width="1.6" fill="none">
<line x1="30.00" y1="503.12" x2="30.35" y2="112.26"/>
<line x1="30.00" y1="503.12" x2="38.80" y2="551.55"/>
<line x1="30.00" y1="503.12" x2="47.67" y2="1193.62"/>
<line x1="30.00" y1="503.12" x2="60.24" y2="311.77"/>
<line x1="30.00" y1="503.12" x2="70.25" y2="366.15"/>
<line x1="30.00" y1="503.12" x2="84.49" y2="413.21"/>
<line x1="30.00" y1="503.12" x2="138.95" y2="551.74"/>
<line x1="30.00" y1="503.12" x2="147.38" y2="453.56"/>
<line x1="30.35" y1="112.26" x2="60.24" y2="311.77"/>
<line x1="30.35" y1="112.26" x2="66.41" y2="182.05"/>
<line x1="30.35" y1="112.26" x2="81.96" y2="114.82"/>
<line x1="30.35" y1="112.26" x2="130.55" y2="56.12"/>
<line x1="38.80" y1="551.55" x2="47.67" y2="1193.62"/>
<line x1="38.80" y1="551.55" x2="71.38" y2="610.61"/>
<line x1="38.80" y1="551.55" x2="87.62" y2="939.86"/>
<line x1="38.80" y1="551.55" x2="92.01" y2="836.15"/>
<line x1="38.80" y1="551.55" x2="138.95" y2="551.74"/>
<line x1="47.67" y1="1193.62" x2="74.83" y2="1151.07"/>
<line x1="47.67" y1="1193.62" x2="78.78" y2="1288.14"/>
<line x1="47.67" y1="1193.62" x2="83.64" y2="1029.38"/>
<line x1="47.67" y1="1193.62" x2="87.62" y2="939.86"/>
<line x1="47.67" y1="1193.62" x2="152.53" y2="1261.57"/>
<line x1="60.24" y1="311.77" x2="66.41" y2="182.05"/>
<line x1="60.24" y1="311.77" x2="70.25" y2="366.15"/>
<line x1="60.24" y1="311.77" x2="118.31" y2="340.22"/>
<line x1="66.41" y1="182.05" x2="81.96" y2="114.82"/>
<line x1="66.41" y1="182.05" x2="118.31" y2="340.22"/>
<line x1="66.41" y1="182.05" x2="140.50" y2="138.30"/>
<line x1="66.41" y1="182.05" x2="181.77" y2="323.58"/>
<line x1="66.41" y1="182.05" x2="202.31" y2="171.84"/>
<line x1="70.25" y1="366.15" x2="84.49" y2="413.21"/>
<line x1="70.25" y1="366.15" x2="118.31" y2="340.22"/>
<line x1="71.38" y1="610.61" x2="92.01" y2="836.15"/>
<line x1="71.38" y1="610.61" x2="118.82" y2="658.78"/>
<line x1="71.38" y1="610.61" x2="138.95" y2="551.74"/>
<line x1="71.38" y1="610.61" x2="151.59" y2="627.93"/>
<line x1="74.83" y1="1151.07" x2="83.64" y2="1029.38"/>
<line x1="74.83" y1="1151.07" x2="124.63" y2="1112.42"/>
<line x1="74.83" y1="1151.07" x2="152.53" y2="1261.57"/>
<line x1="74.83" y1="1151.07" x2="190.78" y2="1160.30"/>
<line x1="78.78" y1="1288.14" x2="152.53" y2="1261.57"/>
<line x1="78.78" y1="1288.14" x2="296.50" y2="1354.57"/>
<line x1="81.96" y1="114.82" x2="130.55" y2="56.12"/>
<line x1="81.96" y1="114.82" x2="140.50" y2="138.30"/>
<line x1="83.64" y1="1029.38" x2="87.62" y2="939.86"/>
<line x1="83.64" y1="1029.38" x2="124.63" y2="1112.42"/>
<line x1="83.64" y1="1029.38" x2="163.66" y2="973.53"/>
<line x1="83.64" y1="1029.38" x2="208.27" y2="1009.37"/>
<line x1="84.49" y1="413.21" x2="118.31" y2="340.22"/>
<line x1="84.49" y1="413.21" x2="147.38" y2="453.56"/>
<line x1="84.49" y1="413.21" x2="178.32" y2="418.50"/>
<line x1="87.62" y1="939.86" x2="92.01" y2="836.15"/>
<line x1="87.62" y1="939.86" x2="121.92" y2="870.32"/>
<line x1="87.62" y1="939.86" x2="152.66" y2="914.07"/>
<line x1="87.62" y1="939.86" x2="163.66" y2="973.53"/>
<line x1="92.01" y1="836.15" x2="118.82" y2="658.78"/>
<line x1="92.01" y1="836.15" x2="121.92" y2="870.32"/>
<line x1="92.01" y1="836.15" x2="163.65" y2="774.38"/>
<line x1="92.01" y1="836.15" x2="170.22" y2="839.78"/>
<line x1="118.31" y1="340.22" x2="178.32" y2="418.50"/>
<line x1="118.31" y1="340.22" x2="181.77" y2="323.58"/>
<line x1="118.31" y1="340.22" x2="200.89" y2="390.30"/>
<line x1="118.82" y1="658.78" x2="151.59" y2="627.93"/>
<line x1="118.82" y1="658.78" x2="163.65" y2="774.38"/>
<line x1="121.92" y1="870.32" x2="152.66" y2="914.07"/>
<line x1="121.92" y1="870.32" x2="170.22" y2="839.78"/>
<line x1="124.63" y1="1112.42" x2="190.78" y2="1160.30"/>
<line x1="124.63" y1="1112.42" x2="208.27" y2="1009.37"/>
<line x1="124.63" y1="1112.42" x2="264.41" y2="1066.36"/>
<line x1="130.55" y1="56.12" x2="140.50" y2="138.30"/>
<line x1="130.55" y1="56.12" x2="265.71" y2="37.14"/>
<line x1="138.95" y1="551.74" x2="147.38" y2="453.56"/>
<line x1="138.95" y1="551.74" x2="151.59" y2="627.93"/>
<line x1="138.95" y1="551.74" x2="201.98" y2="603.00"/>
<line x1="138.95" y1="551.74" x2="307.04" y2="498.02"/>
<line x1="140.50" y1="138.30" x2="202.31" y2="171.84"/>
<line x1="140.50" y1="138.30" x2="265.71" y2="37.14"/>
<line x1="147.38" y1="453.56" x2="178.32" y2="418.50"/>
<line x1="147.38" y1="453.56" x2="228.30" y2="416.34"/>
<line x1="147.38" y1="453.56" x2="271.27" y2="435.96"/>
<line x1="147.38" y1="453.56" x2="307.04" y2="498.02"/>
<line x1="151.59" y1="627.93" x2="163.65" y2="774.38"/>
<line x1="151.59" y1="627.93" x2="201.98" y2="603.00"/>
<line x1="152.53" y1="1261.57" x2="190.78" y2="1160.30"/>
<line x1="152.53" y1="1261.57" x2="275.04" y2="1247.34"/>
<line x1="152.53" y1="1261.57" x2="296.50" y2="1354.57"/>
<line x1="152.66" y1="914.07" x2="163.66" y2="973.53"/>
<line x1="152.66" y1="914.07" x2="170.22" y2="839.78"/>
<line x1="152.66" y1="914.07" x2="251.39" y2="975.35"/>
<line x1="152.66" y1="914.07" x2="310.33" y2="906.63"/>
<line x1="163.65" y1="774.38" x2="170.22" y2="839.78"/>
<line x1="163.65" y1="774.38" x2="201.98" y2="603.00"/>
<line x1="163.65" y1="774.38" x2="302.17" y2="648.05"/>
<line x1="163.65" y1="774.38" x2="308.73" y2="802.16"/>
<line x1="163.66" y1="973.53" x2="208.27" y2="1009.37"/>
<line x1="163.66" y1="973.53" x2="251.39" y2="975.35"/>
<line x1="170.22" y1="839.78" x2="308.73" y2="802.16"/>
<line x1="170.22" y1="839.78" x2="310.33" y2="906.63"/>
<line x1="178.32" y1="418.50" x2="200.89" y2="390.30"/>
<line x1="178.32" y1="418.50" x2="228.30" y2="416.34"/>
<line x1="181.77" y1="323.58" x2="200.89" y2="390.30"/>
<line x1="181.77" y1="323.58" x2="202.31" y2="171.84"/>
<line x1="181.77" y1="323.58" x2="231.84" y2="300.67"/>
<line x1="190.78" y1="1160.30" x2="264.41" y2="1066.36"/>
<line x1="190.78" y1="1160.30" x2="275.04" y2="1247.34"/>
<line x1="190.78" y1="1160.30" x2="279.68" y2="1151.06"/>
<line x1="200.89" y1="390.30" x2="228.30" y2="416.34"/>
<line x1="200.89" y1="390.30" x2="231.84" y2="300.67"/>
<line x1="200.89" y1="390.30" x2="274.25" y2="382.56"/>
<line x1="201.98" y1="603.00" x2="302.17" y2="648.05"/>
<line x1="201.98" y1="603.00" x2="307.04" y2="498.02"/>
<line x1="202.31" y1="171.84" x2="231.84" y2="300.67"/>
<line x1="202.31" y1="171.84" x2="265.71" y2="37.14"/>
<line x1="202.31" y1="171.84" x2="282.89" y2="187.40"/>
<line x1="208.27" y1="1009.37" x2="251.39" y2="975.35"/>
<line x1="208.27" y1="1009.37" x2="264.41" y2="1066.36"/>
<line x1="228.30" y1="416.34" x2="271.27" y2="435.96"/>
<line x1="228.30" y1="416.34" x2="274.25" y2="382.56"/>
<line x1="231.84" y1="300.67" x2="274.25" y2="382.56"/>
<line x1="231.84" y1="300.67" x2="275.80" y2="303.09"/>
<line x1="231.84" y1="300.67" x2="282.89" y2="187.40"/>
<line x1="251.39" y1="975.35" x2="264.41" y2="1066.36"/>
<line x1="251.39" y1="975.35" x2="285.85" y2="962.69"/>
<line x1="251.39" y1="975.35" x2="310.33" y2="906.63"/>
<line x1="251.39" y1="975.35" x2="317.67" y2="1005.34"/>
<line x1="264.41" y1="1066.36" x2="279.68" y2="1151.06"/>
<line x1="264.41" y1="1066.36" x2="317.67" y2="1005.34"/>
<line x1="264.41" y1="1066.36" x2="323.28" y2="1147.34"/>
<line x1="264.41" y1="1066.36" x2="367.19" y2="1097.95"/>
<line x1="265.71" y1="37.14" x2="282.89" y2="187.40"/>
<line x1="265.71" y1="37.14" x2="342.10" y2="64.95"/>
<line x1="265.71" y1="37.14" x2="346.59" y2="131.76"/>
<line x1="265.71" y1="37.14" x2="387.80" y2="32.72"/>
<line x1="271.27" y1="435.96" x2="274.25" y2="382.56"/>
<line x1="271.27" y1="435.96" x2="307.04" y2="498.02"/>
<line x1="271.27" y1="435.96" x2="310.25" y2="385.50"/>
<line x1="271.27" y1="435.96" x2="346.42" y2="403.63"/>
<line x1="271.27" y1="435.96" x2="348.46" y2="458.31"/>
<line x1="274.25" y1="382.56" x2="275.80" y2="303.09"/>
<line x1="274.25" y1="382.56" x2="310.25" y2="385.50"/>
<line x1="275.04" y1="1247.34" x2="279.68" y2="1151.06"/>
<line x1="275.04" y1="1247.34" x2="296.50" y2="1354.57"/>
<line x1="275.04" y1="1247.34" x2="310.05" y2="1278.86"/>
<line x1="275.04" y1="1247.34" x2="346.31" y2="1208.45"/>
<line x1="275.80" y1="303.09" x2="282.89" y2="187.40"/>
<line x1="275.80" y1="303.09" x2="310.25" y2="385.50"/>
<line x1="275.80" y1="303.09" x2="366.41" y2="373.64"/>
<line x1="275.80" y1="303.09" x2="394.99" y2="154.89"/>
<line x1="279.68" y1="1151.06" x2="323.28" y2="1147.34"/>
<line x1="279.68" y1="1151.06" x2="346.31" y2="1208.45"/>
<line x1="282.89" y1="187.40" x2="346.59" y2="131.76"/>
<line x1="282.89" y1="187.40" x2="394.99" y2="154.89"/>
<line x1="285.85" y1="962.69" x2="310.33" y2="906.63"/>
<line x1="285.85" y1="962.69" x2="317.67" y2="1005.34"/>
<line x1="285.85" y1="962.69" x2="334.88" y2="954.97"/>
<line x1="296.50" y1="1354.57" x2="310.05" y2="1278.86"/>
<line x1="296.50" y1="1354.57" x2="339.58" y2="1352.03"/>
<line x1="296.50" y1="1354.57" x2="598.27" y2="1352.48"/>
<line x1="296.50" y1="1354.57" x2="873.06" y2="1366.52"/>
<line x1="302.17" y1="648.05" x2="307.04" y2="498.02"/>
<line x1="302.17" y1="648.05" x2="308.73" y2="802.16"/>
<line x1="302.17" y1="648.05" x2="351.53" y2="779.05"/>
<line x1="302.17" y1="648.05" x2="357.66" y2="557.06"/>
<line x1="302.17" y1="648.05" x2="404.97" y2="741.98"/>
<line x1="302.17" y1="648.05" x2="427.75" y2="630.61"/>
<line x1="307.04" y1="498.02" x2="348.46" y2="458.31"/>
<line x1="307.04" y1="498.02" x2="357.66" y2="557.06"/>
<line x1="308.73" y1="802.16" x2="310.33" y2="906.63"/>
<line x1="308.73" y1="802.16" x2="337.56" y2="851.73"/>
<line x1="308.73" y1="802.16" x2="351.53" y2="779.05"/>
<line x1="308.73" y1="802.16" x2="373.59" y2="809.39"/>
<line x1="310.05" y1="1278.86" x2="339.58" y2="1352.03"/>
<line x1="310.05" y1="1278.86" x2="346.31" y2="1208.45"/>
<line x1="310.05" y1="1278.86" x2="370.51" y2="1286.29"/>
<line x1="310.05" y1="1278.86" x2="373.33" y2="1238.04"/>
<line x1="310.25" y1="385.50" x2="346.42" y2="403.63"/>
<line x1="310.25" y1="385.50" x2="366.41" y2="373.64"/>
<line x1="310.33" y1="906.63" x2="334.88" y2="954.97"/>
<line x1="310.33" y1="906.63" x2="337.56" y2="851.73"/>
<line x1="310.33" y1="906.63" x2="438.87" y2="899.71"/>
<line x1="317.67" y1="1005.34" x2="334.88" y2="954.97"/>
<line x1="317.67" y1="1005.34" x2="357.36" y2="1011.45"/>
<line x1="317.67" y1="1005.34" x2="367.19" y2="1097.95"/>
<line x1="323.28" y1="1147.34" x2="346.31" y2="1208.45"/>
<line x1="323.28" y1="1147.34" x2="367.19" y2="1097.95"/>
<line x1="334.88" y1="954.97" x2="357.36" y2="1011.45"/>
<line x1="334.88" y1="954.97" x2="438.87" y2="899.71"/>
<line x1="334.88" y1="954.97" x2="439.65" y2="991.95"/>
<line x1="337.56" y1="851.73" x2="373.59" y2="809.39"/>
<line x1="337.56" y1="851.73" x2="423.69" y2="842.84"/>
<line x1="337.56" y1="851.73" x2="438.87" y2="899.71"/>
<line x1="339.58" y1="1352.03" x2="370.51" y2="1286.29"/>
<line x1="339.58" y1="1352.03" x2="405.25" y2="1330.06"/>
<line x1="339.58" y1="1352.03" x2="493.01" y2="1329.07"/>
<line x1="339.58" y1="1352.03" x2="598.27" y2="1352.48"/>
<line x1="342.10" y1="64.95" x2="346.59" y2="131.76"/>
<line x1="342.10" y1="64.95" x2="387.80" y2="32.72"/>
<line x1="342.10" y1="64.95" x2="394.99" y2="154.89"/>
<line x1="346.31" y1="1208.45" x2="367.19" y2="1097.95"/>
<line x1="346.31" y1="1208.45" x2="373.33" y2="1238.04"/>
<line x1="346.31" y1="1208.45" x2="425.04" y2="1082.14"/>
<line x1="346.31" y1="1208.45" x2="447.78" y2="1246.96"/>
<line x1="346.42" y1="403.63" x2="348.46" y2="458.31"/>
<line x1="346.42" y1="403.63" x2="366.41" y2="373.64"/>
<line x1="346.42" y1="403.63" x2="468.11" y2="396.18"/>
<line x1="346.59" y1="131.76" x2="394.99" y2="154.89"/>
<line x1="348.46" y1="458.31" x2="357.66" y2="557.06"/>
<line x1="348.46" y1="458.31" x2="426.57" y2="534.48"/>
<line x1="348.46" y1="458.31" x2="468.11" y2="396.18"/>
<line x1="348.46" y1="458.31" x2="470.27" y2="470.42"/>
<line x1="351.53" y1="779.05" x2="373.59" y2="809.39"/>
<line x1="351.53" y1="779.05" x2="404.97" y2="741.98"/>
<line x1="357.36" y1="1011.45" x2="367.19" y2="1097.95"/>
<line x1="357.36" y1="1011.45" x2="426.11" y2="1031.94"/>
<line x1="357.36" y1="1011.45" x2="439.65" y2="991.95"/>
<line x1="357.66" y1="557.06" x2="400.19" y2="557.76"/>
<line x1="357.66" y1="557.06" x2="424.44" y2="584.07"/>
<line x1="357.66" y1="557.06" x2="426.57" y2="534.48"/>
<line x1="357.66" y1="557.06" x2="427.75" y2="630.61"/>
<line x1="366.41" y1="373.64" x2="394.99" y2="154.89"/>
<line x1="366.41" y1="373.64" x2="465.16" y2="186.54"/>
<line x1="366.41" y1="373.64" x2="468.11" y2="396.18"/>
<line x1="366.41" y1="373.64" x2="497.84" y2="285.68"/>
<line x1="367.19" y1="1097.95" x2="425.04" y2="1082.14"/>
<line x1="367.19" y1="1097.95" x2="426.11" y2="1031.94"/>
<line x1="370.51" y1="1286.29" x2="373.33" y2="1238.04"/>
<line x1="370.51" y1="1286.29" x2="405.25" y2="1330.06"/>
<line x1="370.51" y1="1286.29" x2="447.78" y2="1246.96"/>
<line x1="373.33" y1="1238.04" x2="447.78" y2="1246.96"/>
<line x1="373.59" y1="809.39" x2="404.97" y2="741.98"/>
<line x1="373.59" y1="809.39" x2="423.69" y2="842.84"/>
<line x1="387.80" y1="32.72" x2="394.99" y2="154.89"/>
<line x1="387.80" y1="32.72" x2="473.76" y2="92.75"/>
<line x1="387.80" y1="32.72" x2="535.56" y2="49.46"/>
<line x1="387.80" y1="32.72" x2="859.07" y2="40.15"/>
<line x1="387.80" y1="32.72" x2="965.83" y2="35.29"/>
<line x1="394.99" y1="154.89" x2="465.16" y2="186.54"/>
<line x1="394.99" y1="154.89" x2="473.76" y2="92.75"/>
<line x1="400.19" y1="557.76" x2="424.44" y2="584.07"/>
<line x1="400.19" y1="557.76" x2="426.57" y2="534.48"/>
<line x1="404.97" y1="741.98" x2="423.69" y2="842.84"/>
<line x1="404.97" y1="741.98" x2="427.75" y2="630.61"/>
<line x1="404.97" y1="741.98" x2="473.22" y2="703.94"/>
<line x1="404.97" y1="741.98" x2="476.54" y2="793.60"/>
<line x1="404.97" y1="741.98" x2="477.74" y2="756.35"/>
<line x1="405.25" y1="1330.06" x2="447.78" y2="1246.96"/>
<line x1="405.25" y1="1330.06" x2="493.01" y2="1329.07"/>
<line x1="423.69" y1="842.84" x2="438.87" y2="899.71"/>
<line x1="423.69" y1="842.84" x2="476.54" y2="793.60"/>
<line x1="423.69" y1="842.84" x2="496.43" y2="909.76"/>
<line x1="424.44" y1="584.07" x2="426.57" y2="534.48"/>
<line x1="424.44" y1="584.07" x2="427.75" y2="630.61"/>
<line x1="424.44" y1="584.07" x2="481.56" y2="542.68"/>
<line x1="424.44" y1="584.07" x2="499.92" y2="578.11"/>
<line x1="425.04" y1="1082.14" x2="426.11" y2="1031.94"/>
<line x1="425.04" y1="1082.14" x2="447.78" y2="1246.96"/>
<line x1="425.04" y1="1082.14" x2="473.09" y2="1039.25"/>
<line x1="425.04" y1="1082.14" x2="480.36" y2="1230.03"/>
<line x1="425.04" y1="1082.14" x2="520.27" y2="1070.68"/>
<line x1="425.04" y1="1082.14" x2="521.76" y2="1133.18"/>
<line x1="426.11" y1="1031.94" x2="439.65" y2="991.95"/>
<line x1="426.11" y1="1031.94" x2="473.09" y2="1039.25"/>
<line x1="426.57" y1="534.48" x2="470.27" y2="470.42"/>
<line x1="426.57" y1="534.48" x2="481.56" y2="542.68"/>
<line x1="427.75" y1="630.61" x2="473.22" y2="703.94"/>
<line x1="427.75" y1="630.61" x2="499.92" y2="578.11"/>
<line x1="427.75" y1="630.61" x2="507.68" y2="655.33"/>
<line x1="438.87" y1="899.71" x2="439.65" y2="991.95"/>
<line x1="438.87" y1="899.71" x2="461.44" y2="929.90"/>
<line x1="438.87" y1="899.71" x2="496.43" y2="909.76"/>
<line x1="439.65" y1="991.95" x2="461.44" y2="929.90"/>
<line x1="439.65" y1="991.95" x2="473.09" y2="1039.25"/>
<line x1="439.65" y1="991.95" x2="513.53" y2="1016.12"/>
<line x1="447.78" y1="1246.96" x2="480.36" y2="1230.03"/>
<line x1="447.78" y1="1246.96" x2="493.01" y2="1329.07"/>
<line x1="461.44" y1="929.90" x2="496.43" y2="909.76"/>
<line x1="461.44" y1="929.90" x2="513.53" y2="1016.12"/>
<line x1="465.16" y1="186.54" x2="473.76" y2="92.75"/>
<line x1="465.16" y1="186.54" x2="497.84" y2="285.68"/>
<line x1="465.16" y1="186.54" x2="506.22" y2="235.10"/>
<line x1="465.16" y1="186.54" x2="613.04" y2="155.87"/>
<line x1="468.11" y1="396.18" x2="470.27" y2="470.42"/>
<line x1="468.11" y1="396.18" x2="497.84" y2="285.68"/>
<line x1="468.11" y1="396.18" x2="511.25" y2="471.60"/>
<line x1="468.11" y1="396.18" x2="557.40" y2="366.20"/>
<line x1="470.27" y1="470.42" x2="481.56" y2="542.68"/>
<line x1="470.27" y1="470.42" x2="511.25" y2="471.60"/>
<line x1="473.09" y1="1039.25" x2="513.53" y2="1016.12"/>
<line x1="473.09" y1="1039.25" x2="520.27" y2="1070.68"/>
<line x1="473.22" y1="703.94" x2="477.74" y2="756.35"/>
<line x1="473.22" y1="703.94" x2="506.49" y2="736.57"/>
<line x1="473.22" y1="703.94" x2="507.68" y2="655.33"/>
<line x1="473.22" y1="703.94" x2="552.87" y2="706.21"/>
<line x1="473.76" y1="92.75" x2="535.56" y2="49.46"/>
<line x1="473.76" y1="92.75" x2="581.65" y2="61.11"/>
<line x1="473.76" y1="92.75" x2="613.04" y2="155.87"/>
<line x1="476.54" y1="793.60" x2="477.74" y2="756.35"/>
<line x1="476.54" y1="793.60" x2="496.43" y2="909.76"/>
<line x1="476.54" y1="793.60" x2="506.49" y2="736.57"/>
<line x1="476.54" y1="793.60" x2="559.69" y2="872.67"/>
<line x1="476.54" y1="793.60" x2="611.87" y2="837.55"/>
<line x1="477.74" y1="756.35" x2="506.49" y2="736.57"/>
<line x1="480.36" y1="1230.03" x2="493.01" y2="1329.07"/>
<line x1="480.36" y1="1230.03" x2="508.09" y2="1209.43"/>
<line x1="480.36" y1="1230.03" x2="521.76" y2="1133.18"/>
<line x1="480.36" y1="1230.03" x2="527.61" y2="1245.28"/>
<line x1="481.56" y1="542.68" x2="499.92" y2="578.11"/>
<line x1="481.56" y1="542.68" x2="511.25" y2="471.60"/>
<line x1="481.56" y1="542.68" x2="539.01" y2="556.60"/>
<line x1="481.56" y1="542.68" x2="547.20" y2="492.33"/>
<line x1="493.01" y1="1329.07" x2="527.61" y2="1245.28"/>
<line x1="493.01" y1="1329.07" x2="559.46" y2="1295.73"/>
<line x1="493.01" y1="1329.07" x2="598.27" y2="1352.48"/>
<line x1="496.43" y1="909.76" x2="513.53" y2="1016.12"/>
<line x1="496.43" y1="909.76" x2="559.69" y2="872.67"/>
<line x1="497.84" y1="285.68" x2="506.22" y2="235.10"/>
<line x1="497.84" y1="285.68" x2="557.40" y2="366.20"/>
<line x1="497.84" y1="285.68" x2="633.68" y2="241.63"/>
<line x1="499.92" y1="578.11" x2="507.68" y2="655.33"/>
<line x1="499.92" y1="578.11" x2="539.01" y2="556.60"/>
<line x1="499.92" y1="578.11" x2="547.22" y2="616.54"/>
<line x1="506.22" y1="235.10" x2="613.04" y2="155.87"/>
<line x1="506.22" y1="235.10" x2="633.68" y2="241.63"/>
<line x1="506.49" y1="736.57" x2="552.87" y2="706.21"/>
<line x1="506.49" y1="736.57" x2="594.42" y2="728.40"/>
<line x1="506.49" y1="736.57" x2="611.87" y2="837.55"/>
<line x1="507.68" y1="655.33" x2="547.22" y2="616.54"/>
<line x1="507.68" y1="655.33" x2="552.87" y2="706.21"/>
<line x1="508.09" y1="1209.43" x2="521.76" y2="1133.18"/>
<line x1="508.09" y1="1209.43" x2="527.61" y2="1245.28"/>
<line x1="508.09" y1="1209.43" x2="554.81" y2="1140.52"/>
<line x1="508.09" y1="1209.43" x2="586.31" y2="1219.94"/>
<line x1="511.25" y1="471.60" x2="547.20" y2="492.33"/>
<line x1="511.25" y1="471.60" x2="557.40" y2="366.20"/>
<line x1="511.25" y1="471.60" x2="582.49" y2="437.53"/>
<line x1="513.53" y1="1016.12" x2="520.27" y2="1070.68"/>
<line x1="513.53" y1="1016.12" x2="559.69" y2="872.67"/>
<line x1="513.53" y1="1016.12" x2="589.01" y2="1079.95"/>
<line x1="513.53" y1="1016.12" x2="638.37" y2="1024.17"/>
<line x1="520.27" y1="1070.68" x2="521.76" y2="1133.18"/>
<line x1="520.27" y1="1070.68" x2="554.81" y2="1140.52"/>
<line x1="520.27" y1="1070.68" x2="589.01" y2="1079.95"/>
<line x1="521.76" y1="1133.18" x2="554.81" y2="1140.52"/>
<line x1="527.61" y1="1245.28" x2="559.46" y2="1295.73"/>
<line x1="527.61" y1="1245.28" x2="586.31" y2="1219.94"/>
<line x1="535.56" y1="49.46" x2="581.65" y2="61.11"/>
<line x1="535.56" y1="49.46" x2="646.09" y2="62.56"/>
<line x1="535.56" y1="49.46" x2="683.38" y2="58.05"/>
<line x1="535.56" y1="49.46" x2="723.56" y2="53.65"/>
<line x1="535.56" y1="49.46" x2="859.07" y2="40.15"/>
<line x1="539.01" y1="556.60" x2="547.20" y2="492.33"/>
<line x1="539.01" y1="556.60" x2="547.22" y2="616.54"/>
<line x1="539.01" y1="556.60" x2="567.22" y2="587.68"/>
<line x1="547.20" y1="492.33" x2="567.22" y2="587.68"/>
<line x1="547.20" y1="492.33" x2="582.49" y2="437.53"/>
<line x1="547.20" y1="492.33" x2="618.52" y2="595.61"/>
<line x1="547.20" y1="492.33" x2="634.68" y2="459.29"/>
<line x1="547.20" y1="492.33" x2="673.76" y2="501.60"/>
<line x1="547.22" y1="616.54" x2="552.87" y2="706.21"/>
<line x1="547.22" y1="616.54" x2="567.22" y2="587.68"/>
<line x1="547.22" y1="616.54" x2="598.36" y2="637.12"/>
<line x1="552.87" y1="706.21" x2="594.42" y2="728.40"/>
<line x1="552.87" y1="706.21" x2="598.36" y2="637.12"/>
<line x1="552.87" y1="706.21" x2="631.03" y2="660.02"/>
<line x1="554.81" y1="1140.52" x2="586.31" y2="1219.94"/>
<line x1="554.81" y1="1140.52" x2="589.01" y2="1079.95"/>
<line x1="554.81" y1="1140.52" x2="642.79" y2="1231.72"/>
<line x1="557.40" y1="366.20" x2="582.49" y2="437.53"/>
<line x1="557.40" y1="366.20" x2="633.68" y2="241.63"/>
<line x1="557.40" y1="366.20" x2="674.82" y2="328.55"/>
<line x1="557.40" y1="366.20" x2="676.56" y2="421.83"/>
<line x1="559.46" y1="1295.73" x2="586.31" y2="1219.94"/>
<line x1="559.46" y1="1295.73" x2="598.27" y2="1352.48"/>
<line x1="559.46" y1="1295.73" x2="642.79" y2="1231.72"/>
<line x1="559.69" y1="872.67" x2="611.87" y2="837.55"/>
<line x1="559.69" y1="872.67" x2="638.37" y2="1024.17"/>
<line x1="559.69" y1="872.67" x2="643.42" y2="864.43"/>
<line x1="567.22" y1="587.68" x2="598.36" y2="637.12"/>
<line x1="567.22" y1="587.68" x2="618.52" y2="595.61"/>
<line x1="581.65" y1="61.11" x2="613.04" y2="155.87"/>
<line x1="581.65" y1="61.11" x2="646.09" y2="62.56"/>
<line x1="582.49" y1="437.53" x2="634.68" y2="459.29"/>
<line x1="582.49" y1="437.53" x2="676.56" y2="421.83"/>
<line x1="586.31" y1="1219.94" x2="642.79" y2="1231.72"/>
<line x1="589.01" y1="1079.95" x2="638.37" y2="1024.17"/>
<line x1="589.01" y1="1079.95" x2="642.79" y2="1231.72"/>
<line x1="589.01" y1="1079.95" x2="700.12" y2="1064.16"/>
<line x1="589.01" y1="1079.95" x2="719.11" y2="1176.48"/>
<line x1="594.42" y1="728.40" x2="611.87" y2="837.55"/>
<line x1="594.42" y1="728.40" x2="631.03" y2="660.02"/>
<line x1="594.42" y1="728.40" x2="631.89" y2="720.92"/>
<line x1="598.27" y1="1352.48" x2="642.79" y2="1231.72"/>
<line x1="598.27" y1="1352.48" x2="675.86" y2="1249.47"/>
<line x1="598.27" y1="1352.48" x2="693.00" y2="1349.20"/>
<line x1="598.27" y1="1352.48" x2="873.06" y2="1366.52"/>
<line x1="598.36" y1="637.12" x2="618.52" y2="595.61"/>
<line x1="598.36" y1="637.12" x2="631.03" y2="660.02"/>
<line x1="611.87" y1="837.55" x2="631.89" y2="720.92"/>
<line x1="611.87" y1="837.55" x2="643.42" y2="864.43"/>
<line x1="611.87" y1="837.55" x2="671.25" y2="835.67"/>
<line x1="613.04" y1="155.87" x2="633.68" y2="241.63"/>
<line x1="613.04" y1="155.87" x2="646.09" y2="62.56"/>
<line x1="613.04" y1="155.87" x2="668.10" y2="169.76"/>
<line x1="618.52" y1="595.61" x2="631.03" y2="660.02"/>
<line x1="618.52" y1="595.61" x2="673.76" y2="501.60"/>
<line x1="618.52" y1="595.61" x2="682.87" y2="648.02"/>
<line x1="618.52" y1="595.61" x2="704.28" y2="561.89"/>
<line x1="631.03" y1="660.02" x2="631.89" y2="720.92"/>
<line x1="631.03" y1="660.02" x2="682.87" y2="648.02"/>
<line x1="631.03" y1="660.02" x2="691.83" y2="725.08"/>
<line x1="631.89" y1="720.92" x2="671.25" y2="835.67"/>
<line x1="631.89" y1="720.92" x2="691.83" y2="725.08"/>
<line x1="633.68" y1="241.63" x2="668.10" y2="169.76"/>
<line x1="633.68" y1="241.63" x2="674.82" y2="328.55"/>
<line x1="633.68" y1="241.63" x2="721.67" y2="198.58"/>
<line x1="634.68" y1="459.29" x2="673.76" y2="501.60"/>
<line x1="634.68" y1="459.29" x2="676.56" y2="421.83"/>
<line x1="638.37" y1="1024.17" x2="643.42" y2="864.43"/>
<line x1="638.37" y1="1024.17" x2="681.42" y2="1012.71"/>
<line x1="638.37" y1="1024.17" x2="700.12" y2="1064.16"/>
<line x1="642.79" y1="1231.72" x2="675.86" y2="1249.47"/>
<line x1="642.79" y1="1231.72" x2="719.11" y2="1176.48"/>
<line x1="643.42" y1="864.43" x2="671.25" y2="835.67"/>
<line x1="643.42" y1="864.43" x2="681.42" y2="1012.71"/>
<line x1="643.42" y1="864.43" x2="725.05" y2="839.23"/>
<line x1="643.42" y1="864.43" x2="747.33" y2="865.90"/>
<line x1="643.42" y1="864.43" x2="758.37" y2="959.52"/>
<line x1="646.09" y1="62.56" x2="668.10" y2="169.76"/>
<line x1="646.09" y1="62.56" x2="683.38" y2="58.05"/>
<line x1="668.10" y1="169.76" x2="683.38" y2="58.05"/>
<line x1="668.10" y1="169.76" x2="721.67" y2="198.58"/>
<line x1="668.10" y1="169.76" x2="723.56" y2="53.65"/>
<line x1="671.25" y1="835.67" x2="691.83" y2="725.08"/>
<line x1="671.25" y1="835.67" x2="725.05" y2="839.23"/>
<line x1="673.76" y1="501.60" x2="676.56" y2="421.83"/>
<line x1="673.76" y1="501.60" x2="704.28" y2="561.89"/>
<line x1="673.76" y1="501.60" x2="716.87" y2="449.24"/>
<line x1="673.76" y1="501.60" x2="754.66" y2="534.82"/>
<line x1="674.82" y1="328.55" x2="676.56" y2="421.83"/>
<line x1="674.82" y1="328.55" x2="721.67" y2="198.58"/>
<line x1="674.82" y1="328.55" x2="754.54" y2="369.24"/>
<line x1="674.82" y1="328.55" x2="794.03" y2="259.26"/>
<line x1="675.86" y1="1249.47" x2="693.00" y2="1349.20"/>
<line x1="675.86" y1="1249.47" x2="719.11" y2="1176.48"/>
<line x1="675.86" y1="1249.47" x2="739.32" y2="1262.10"/>
<line x1="676.56" y1="421.83" x2="716.87" y2="449.24"/>
<line x1="676.56" y1="421.83" x2="748.28" y2="408.03"/>
<line x1="676.56" y1="421.83" x2="754.54" y2="369.24"/>
<line x1="681.42" y1="1012.71" x2="700.12" y2="1064.16"/>
<line x1="681.42" y1="1012.71" x2="758.37" y2="959.52"/>
<line x1="681.42" y1="1012.71" x2="758.78" y2="1065.72"/>
<line x1="682.87" y1="648.02" x2="691.83" y2="725.08"/>
<line x1="682.87" y1="648.02" x2="704.28" y2="561.89"/>
<line x1="682.87" y1="648.02" x2="729.20" y2="606.92"/>
<line x1="682.87" y1="648.02" x2="754.12" y2="700.19"/>
<line x1="683.38" y1="58.05" x2="723.56" y2="53.65"/>
<line x1="691.83" y1="725.08" x2="725.05" y2="839.23"/>
<line x1="691.83" y1="725.08" x2="754.12" y2="700.19"/>
<line x1="691.83" y1="725.08" x2="766.51" y2="763.04"/>
<line x1="693.00" y1="1349.20" x2="734.49" y2="1342.50"/>
<line x1="693.00" y1="1349.20" x2="739.32" y2="1262.10"/>
<line x1="693.00" y1="1349.20" x2="833.49" y2="1357.09"/>
<line x1="693.00" y1="1349.20" x2="873.06" y2="1366.52"/>
<line x1="700.12" y1="1064.16" x2="719.11" y2="1176.48"/>
<line x1="700.12" y1="1064.16" x2="747.01" y2="1152.22"/>
<line x1="700.12" y1="1064.16" x2="758.78" y2="1065.72"/>
<line x1="704.28" y1="561.89" x2="729.20" y2="606.92"/>
<line x1="704.28" y1="561.89" x2="754.66" y2="534.82"/>
<line x1="704.28" y1="561.89" x2="773.37" y2="563.93"/>
<line x1="716.87" y1="449.24" x2="748.28" y2="408.03"/>
<line x1="716.87" y1="449.24" x2="754.66" y2="534.82"/>
<line x1="716.87" y1="449.24" x2="856.88" y2="454.38"/>
<line x1="719.11" y1="1176.48" x2="739.32" y2="1262.10"/>
<line x1="719.11" y1="1176.48" x2="747.01" y2="1152.22"/>
<line x1="721.67" y1="198.58" x2="723.56" y2="53.65"/>
<line x1="721.67" y1="198.58" x2="779.53" y2="76.16"/>
<line x1="721.67" y1="198.58" x2="784.34" y2="208.26"/>
<line x1="721.67" y1="198.58" x2="794.03" y2="259.26"/>
<line x1="721.67" y1="198.58" x2="815.62" y2="146.38"/>
<line x1="723.56" y1="53.65" x2="779.53" y2="76.16"/>
<line x1="723.56" y1="53.65" x2="859.07" y2="40.15"/>
<line x1="725.05" y1="839.23" x2="747.33" y2="865.90"/>
<line x1="725.05" y1="839.23" x2="766.51" y2="763.04"/>
<line x1="725.05" y1="839.23" x2="797.25" y2="828.98"/>
<line x1="729.20" y1="606.92" x2="754.12" y2="700.19"/>
<line x1="729.20" y1="606.92" x2="773.37" y2="563.93"/>
<line x1="729.20" y1="606.92" x2="825.77" y2="630.51"/>
<line x1="734.49" y1="1342.50" x2="739.32" y2="1262.10"/>
<line x1="734.49" y1="1342.50" x2="789.94" y2="1309.37"/>
<line x1="734.49" y1="1342.50" x2="833.49" y2="1357.09"/>
<line x1="739.32" y1="1262.10" x2="747.01" y2="1152.22"/>
<line x1="739.32" y1="1262.10" x2="789.94" y2="1309.37"/>
<line x1="739.32" y1="1262.10" x2="841.52" y2="1186.25"/>
<line x1="739.32" y1="1262.10" x2="860.29" y2="1251.73"/>
<line x1="747.01" y1="1152.22" x2="758.78" y2="1065.72"/>
<line x1="747.01" y1="1152.22" x2="841.52" y2="1186.25"/>
<line x1="747.33" y1="865.90" x2="758.37" y2="959.52"/>
<line x1="747.33" y1="865.90" x2="797.25" y2="828.98"/>
<line x1="747.33" y1="865.90" x2="819.87" y2="948.58"/>
<line x1="748.28" y1="408.03" x2="754.54" y2="369.24"/>
<line x1="748.28" y1="408.03" x2="826.12" y2="397.76"/>
<line x1="748.28" y1="408.03" x2="856.88" y2="454.38"/>
<line x1="754.12" y1="700.19" x2="766.51" y2="763.04"/>
<line x1="754.12" y1="700.19" x2="825.77" y2="630.51"/>
<line x1="754.12" y1="700.19" x2="869.14" y2="744.28"/>
<line x1="754.12" y1="700.19" x2="884.40" y2="689.74"/>
<line x1="754.54" y1="369.24" x2="794.03" y2="259.26"/>
<line x1="754.54" y1="369.24" x2="826.12" y2="397.76"/>
<line x1="754.54" y1="369.24" x2="831.35" y2="325.74"/>
<line x1="754.66" y1="534.82" x2="773.37" y2="563.93"/>
<line x1="754.66" y1="534.82" x2="856.88" y2="454.38"/>
<line x1="758.37" y1="959.52" x2="758.78" y2="1065.72"/>
<line x1="758.37" y1="959.52" x2="819.87" y2="948.58"/>
<line x1="758.37" y1="959.52" x2="821.97" y2="1036.92"/>
<line x1="758.78" y1="1065.72" x2="821.97" y2="1036.92"/>
<line x1="758.78" y1="1065.72" x2="841.52" y2="1186.25"/>
<line x1="766.51" y1="763.04" x2="797.25" y2="828.98"/>
<line x1="766.51" y1="763.04" x2="805.33" y2="783.90"/>
<line x1="766.51" y1="763.04" x2="869.14" y2="744.28"/>
<line x1="773.37" y1="563.93" x2="825.77" y2="630.51"/>
<line x1="773.37" y1="563.93" x2="856.88" y2="454.38"/>
<line x1="773.37" y1="563.93" x2="884.82" y2="556.34"/>
<line x1="779.53" y1="76.16" x2="815.62" y2="146.38"/>
<line x1="779.53" y1="76.16" x2="834.06" y2="106.48"/>
<line x1="779.53" y1="76.16" x2="859.07" y2="40.15"/>
<line x1="784.34" y1="208.26" x2="794.03" y2="259.26"/>
<line x1="784.34" y1="208.26" x2="815.62" y2="146.38"/>
<line x1="784.34" y1="208.26" x2="884.50" y2="208.15"/>
<line x1="789.94" y1="1309.37" x2="833.49" y2="1357.09"/>
<line x1="789.94" y1="1309.37" x2="860.29" y2="1251.73"/>
<line x1="789.94" y1="1309.37" x2="863.54" y2="1311.86"/>
<line x1="794.03" y1="259.26" x2="831.35" y2="325.74"/>
<line x1="794.03" y1="259.26" x2="884.50" y2="208.15"/>
<line x1="794.03" y1="259.26" x2="888.47" y2="319.05"/>
<line x1="797.25" y1="828.98" x2="805.33" y2="783.90"/>
<line x1="797.25" y1="828.98" x2="819.87" y2="948.58"/>
<line x1="797.25" y1="828.98" x2="839.32" y2="820.91"/>
<line x1="805.33" y1="783.90" x2="839.32" y2="820.91"/>
<line x1="805.33" y1="783.90" x2="869.14" y2="744.28"/>
<line x1="815.62" y1="146.38" x2="834.06" y2="106.48"/>
<line x1="815.62" y1="146.38" x2="884.50" y2="208.15"/>
<line x1="815.62" y1="146.38" x2="887.01" y2="117.55"/>
<line x1="819.87" y1="948.58" x2="821.97" y2="1036.92"/>
<line x1="819.87" y1="948.58" x2="839.32" y2="820.91"/>
<line x1="819.87" y1="948.58" x2="855.67" y2="986.57"/>
<line x1="819.87" y1="948.58" x2="896.19" y2="903.05"/>
<line x1="821.97" y1="1036.92" x2="841.52" y2="1186.25"/>
<line x1="821.97" y1="1036.92" x2="855.67" y2="986.57"/>
<line x1="821.97" y1="1036.92" x2="898.53" y2="1145.47"/>
<line x1="821.97" y1="1036.92" x2="947.47" y2="1049.60"/>
<line x1="825.77" y1="630.51" x2="884.40" y2="689.74"/>
<line x1="825.77" y1="630.51" x2="884.82" y2="556.34"/>
<line x1="826.12" y1="397.76" x2="831.35" y2="325.74"/>
<line x1="826.12" y1="397.76" x2="856.88" y2="454.38"/>
<line x1="826.12" y1="397.76" x2="888.47" y2="319.05"/>
<line x1="826.12" y1="397.76" x2="961.52" y2="391.78"/>
<line x1="831.35" y1="325.74" x2="888.47" y2="319.05"/>
<line x1="833.49" y1="1357.09" x2="863.54" y2="1311.86"/>
<line x1="833.49" y1="1357.09" x2="873.06" y2="1366.52"/>
<line x1="834.06" y1="106.48" x2="859.07" y2="40.15"/>
<line x1="834.06" y1="106.48" x2="887.01" y2="117.55"/>
<line x1="839.32" y1="820.91" x2="869.14" y2="744.28"/>
<line x1="839.32" y1="820.91" x2="896.19" y2="903.05"/>
<line x1="839.32" y1="820.91" x2="902.47" y2="749.06"/>
<line x1="839.32" y1="820.91" x2="954.51" y2="797.92"/>
<line x1="841.52" y1="1186.25" x2="860.29" y2="1251.73"/>
<line x1="841.52" y1="1186.25" x2="898.53" y2="1145.47"/>
<line x1="841.52" y1="1186.25" x2="903.96" y2="1181.50"/>
<line x1="855.67" y1="986.57" x2="896.19" y2="903.05"/>
<line x1="855.67" y1="986.57" x2="947.47" y2="1049.60"/>
<line x1="855.67" y1="986.57" x2="970.44" y2="998.74"/>
<line x1="856.88" y1="454.38" x2="884.82" y2="556.34"/>
<line x1="856.88" y1="454.38" x2="924.17" y2="474.70"/>
<line x1="856.88" y1="454.38" x2="961.52" y2="391.78"/>
<line x1="859.07" y1="40.15" x2="887.01" y2="117.55"/>
<line x1="859.07" y1="40.15" x2="938.74" y2="87.74"/>
<line x1="859.07" y1="40.15" x2="965.83" y2="35.29"/>
<line x1="860.29" y1="1251.73" x2="863.54" y2="1311.86"/>
<line x1="860.29" y1="1251.73" x2="903.96" y2="1181.50"/>
<line x1="860.29" y1="1251.73" x2="958.83" y2="1272.22"/>
<line x1="863.54" y1="1311.86" x2="873.06" y2="1366.52"/>
<line x1="863.54" y1="1311.86" x2="958.83" y2="1272.22"/>
<line x1="869.14" y1="744.28" x2="884.40" y2="689.74"/>
<line x1="869.14" y1="744.28" x2="902.47" y2="749.06"/>
<line x1="873.06" y1="1366.52" x2="958.83" y2="1272.22"/>
<line x1="873.06" y1="1366.52" x2="999.52" y2="1297.68"/>
<line x1="873.06" y1="1366.52" x2="1055.11" y2="1350.43"/>
<line x1="873.06" y1="1366.52" x2="1196.12" y2="1370.00"/>
<line x1="884.40" y1="689.74" x2="884.82" y2="556.34"/>
<line x1="884.40" y1="689.74" x2="902.47" y2="749.06"/>
<line x1="884.40" y1="689.74" x2="959.80" y2="721.97"/>
<line x1="884.40" y1="689.74" x2="963.93" y2="616.56"/>
<line x1="884.50" y1="208.15" x2="887.01" y2="117.55"/>
<line x1="884.50" y1="208.15" x2="888.47" y2="319.05"/>
<line x1="884.50" y1="208.15" x2="937.29" y2="247.77"/>
<line x1="884.50" y1="208.15" x2="998.98" y2="128.53"/>
<line x1="884.82" y1="556.34" x2="924.17" y2="474.70"/>
<line x1="884.82" y1="556.34" x2="944.03" y2="521.05"/>
<line x1="884.82" y1="556.34" x2="963.93" y2="616.56"/>
<line x1="887.01" y1="117.55" x2="938.74" y2="87.74"/>
<line x1="887.01" y1="117.55" x2="998.98" y2="128.53"/>
<line x1="888.47" y1="319.05" x2="928.29" y2="318.15"/>
<line x1="888.47" y1="319.05" x2="937.29" y2="247.77"/>
<line x1="888.47" y1="319.05" x2="961.52" y2="391.78"/>
<line x1="896.19" y1="903.05" x2="954.51" y2="797.92"/>
<line x1="896.19" y1="903.05" x2="970.44" y2="998.74"/>
<line x1="896.19" y1="903.05" x2="976.79" y2="865.55"/>
<line x1="898.53" y1="1145.47" x2="903.96" y2="1181.50"/>
<line x1="898.53" y1="1145.47" x2="947.47" y2="1049.60"/>
<line x1="898.53" y1="1145.47" x2="981.93" y2="1189.90"/>
<line x1="898.53" y1="1145.47" x2="984.94" y2="1077.53"/>
<line x1="902.47" y1="749.06" x2="954.51" y2="797.92"/>
<line x1="902.47" y1="749.06" x2="959.80" y2="721.97"/>
<line x1="903.96" y1="1181.50" x2="958.83" y2="1272.22"/>
<line x1="903.96" y1="1181.50" x2="981.93" y2="1189.90"/>
<line x1="924.17" y1="474.70" x2="944.03" y2="521.05"/>
<line x1="924.17" y1="474.70" x2="961.52" y2="391.78"/>
<line x1="924.17" y1="474.70" x2="1065.70" y2="498.18"/>
<line x1="928.29" y1="318.15" x2="937.29" y2="247.77"/>
<line x1="928.29" y1="318.15" x2="961.52" y2="391.78"/>
<line x1="928.29" y1="318.15" x2="998.10" y2="373.47"/>
<line x1="928.29" y1="318.15" x2="1029.37" y2="267.82"/>
<line x1="937.29" y1="247.77" x2="998.98" y2="128.53"/>
<line x1="937.29" y1="247.77" x2="1029.37" y2="267.82"/>
<line x1="937.29" y1="247.77" x2="1034.09" y2="186.25"/>
<line x1="938.74" y1="87.74" x2="965.83" y2="35.29"/>
<line x1="938.74" y1="87.74" x2="998.98" y2="128.53"/>
<line x1="944.03" y1="521.05" x2="963.93" y2="616.56"/>
<line x1="944.03" y1="521.05" x2="1019.44" y2="588.44"/>
<line x1="944.03" y1="521.05" x2="1065.70" y2="498.18"/>
<line x1="947.47" y1="1049.60" x2="970.44" y2="998.74"/>
<line x1="947.47" y1="1049.60" x2="984.94" y2="1077.53"/>
<line x1="954.51" y1="797.92" x2="959.80" y2="721.97"/>
<line x1="954.51" y1="797.92" x2="976.79" y2="865.55"/>
<line x1="954.51" y1="797.92" x2="1010.33" y2="788.03"/>
<line x1="958.83" y1="1272.22" x2="981.93" y2="1189.90"/>
<line x1="958.83" y1="1272.22" x2="999.52" y2="1297.68"/>
<line x1="958.83" y1="1272.22" x2="1041.51" y2="1272.03"/>
<line x1="959.80" y1="721.97" x2="963.93" y2="616.56"/>
<line x1="959.80" y1="721.97" x2="1010.33" y2="788.03"/>
<line x1="959.80" y1="721.97" x2="1025.68" y2="707.74"/>
<line x1="959.80" y1="721.97" x2="1037.03" y2="655.43"/>
<line x1="961.52" y1="391.78" x2="998.10" y2="373.47"/>
<line x1="961.52" y1="391.78" x2="1065.70" y2="498.18"/>
<line x1="963.93" y1="616.56" x2="1019.44" y2="588.44"/>
<line x1="963.93" y1="616.56" x2="1037.03" y2="655.43"/>
<line x1="965.83" y1="35.29" x2="998.98" y2="128.53"/>
<line x1="965.83" y1="35.29" x2="1164.19" y2="81.86"/>
<line x1="965.83" y1="35.29" x2="1337.71" y2="110.14"/>
<line x1="970.44" y1="998.74" x2="976.79" y2="865.55"/>
<line x1="970.44" y1="998.74" x2="984.94" y2="1077.53"/>
<line x1="970.44" y1="998.74" x2="1078.13" y2="954.93"/>
<line x1="970.44" y1="998.74" x2="1108.56" y2="1048.07"/>
<line x1="976.79" y1="865.55" x2="1010.33" y2="788.03"/>
<line x1="976.79" y1="865.55" x2="1019.82" y2="857.20"/>
<line x1="976.79" y1="865.55" x2="1078.13" y2="954.93"/>
<line x1="981.93" y1="1189.90" x2="984.94" y2="1077.53"/>
<line x1="981.93" y1="1189.90" x2="1041.51" y2="1272.03"/>
<line x1="981.93" y1="1189.90" x2="1044.35" y2="1128.60"/>
<line x1="984.94" y1="1077.53" x2="1044.35" y2="1128.60"/>
<line x1="984.94" y1="1077.53" x2="1108.56" y2="1048.07"/>
<line x1="998.10" y1="373.47" x2="1029.37" y2="267.82"/>
<line x1="998.10" y1="373.47" x2="1060.26" y2="377.77"/>
<line x1="998.10" y1="373.47" x2="1065.70" y2="498.18"/>
<line x1="998.10" y1="373.47" x2="1091.14" y2="417.59"/>
<line x1="998.98" y1="128.53" x2="1034.09" y2="186.25"/>
<line x1="998.98" y1="128.53" x2="1164.19" y2="81.86"/>
<line x1="999.52" y1="1297.68" x2="1041.51" y2="1272.03"/>
<line x1="999.52" y1="1297.68" x2="1055.11" y2="1350.43"/>
<line x1="1010.33" y1="788.03" x2="1019.82" y2="857.20"/>
<line x1="1010.33" y1="788.03" x2="1025.68" y2="707.74"/>
<line x1="1010.33" y1="788.03" x2="1066.56" y2="823.93"/>
<line x1="1010.33" y1="788.03" x2="1107.17" y2="787.14"/>
<line x1="1019.44" y1="588.44" x2="1037.03" y2="655.43"/>
<line x1="1019.44" y1="588.44" x2="1062.08" y2="604.83"/>
<line x1="1019.44" y1="588.44" x2="1065.70" y2="498.18"/>
<line x1="1019.44" y1="588.44" x2="1096.67" y2="559.01"/>
<line x1="1019.82" y1="857.20" x2="1066.56" y2="823.93"/>
<line x1="1019.82" y1="857.20" x2="1078.13" y2="954.93"/>
<line x1="1025.68" y1="707.74" x2="1037.03" y2="655.43"/>
<line x1="1025.68" y1="707.74" x2="1105.35" y2="665.87"/>
<line x1="1025.68" y1="707.74" x2="1107.17" y2="787.14"/>
<line x1="1025.68" y1="707.74" x2="1146.50" y2="733.56"/>
<line x1="1029.37" y1="267.82" x2="1034.09" y2="186.25"/>
<line x1="1029.37" y1="267.82" x2="1060.26" y2="377.77"/>
<line x1="1029.37" y1="267.82" x2="1132.07" y2="283.39"/>
<line x1="1034.09" y1="186.25" x2="1132.07" y2="283.39"/>
<line x1="1034.09" y1="186.25" x2="1156.05" y2="208.59"/>
<line x1="1034.09" y1="186.25" x2="1164.19" y2="81.86"/>
<line x1="1037.03" y1="655.43" x2="1062.08" y2="604.83"/>
<line x1="1037.03" y1="655.43" x2="1105.35" y2="665.87"/>
<line x1="1041.51" y1="1272.03" x2="1044.35" y2="1128.60"/>
<line x1="1041.51" y1="1272.03" x2="1055.11" y2="1350.43"/>
<line x1="1041.51" y1="1272.03" x2="1079.50" y2="1308.86"/>
<line x1="1041.51" y1="1272.03" x2="1112.22" y2="1255.38"/>
<line x1="1044.35" y1="1128.60" x2="1108.56" y2="1048.07"/>
<line x1="1044.35" y1="1128.60" x2="1112.22" y2="1255.38"/>
<line x1="1044.35" y1="1128.60" x2="1133.62" y2="1072.68"/>
<line x1="1044.35" y1="1128.60" x2="1172.51" y2="1230.11"/>
<line x1="1044.35" y1="1128.60" x2="1210.00" y2="1149.43"/>
<line x1="1055.11" y1="1350.43" x2="1079.50" y2="1308.86"/>
<line x1="1055.11" y1="1350.43" x2="1196.12" y2="1370.00"/>
<line x1="1060.26" y1="377.77" x2="1091.14" y2="417.59"/>
<line x1="1060.26" y1="377.77" x2="1132.07" y2="283.39"/>
<line x1="1060.26" y1="377.77" x2="1132.37" y2="402.06"/>
<line x1="1062.08" y1="604.83" x2="1096.67" y2="559.01"/>
<line x1="1062.08" y1="604.83" x2="1105.35" y2="665.87"/>
<line x1="1062.08" y1="604.83" x2="1159.05" y2="615.63"/>
<line x1="1065.70" y1="498.18" x2="1091.14" y2="417.59"/>
<line x1="1065.70" y1="498.18" x2="1096.67" y2="559.01"/>
<line x1="1065.70" y1="498.18" x2="1148.95" y2="553.77"/>
<line x1="1065.70" y1="498.18" x2="1154.01" y2="448.91"/>
<line x1="1066.56" y1="823.93" x2="1078.13" y2="954.93"/>
<line x1="1066.56" y1="823.93" x2="1107.17" y2="787.14"/>
<line x1="1066.56" y1="823.93" x2="1126.42" y2="837.55"/>
<line x1="1078.13" y1="954.93" x2="1108.56" y2="1048.07"/>
<line x1="1078.13" y1="954.93" x2="1126.36" y2="959.90"/>
<line x1="1078.13" y1="954.93" x2="1126.42" y2="837.55"/>
<line x1="1078.13" y1="954.93" x2="1153.48" y2="865.90"/>
<line x1="1079.50" y1="1308.86" x2="1112.22" y2="1255.38"/>
<line x1="1079.50" y1="1308.86" x2="1161.20" y2="1298.70"/>
<line x1="1079.50" y1="1308.86" x2="1196.12" y2="1370.00"/>
<line x1="1091.14" y1="417.59" x2="1132.37" y2="402.06"/>
<line x1="1091.14" y1="417.59" x2="1154.01" y2="448.91"/>
<line x1="1096.67" y1="559.01" x2="1148.95" y2="553.77"/>
<line x1="1096.67" y1="559.01" x2="1159.05" y2="615.63"/>
<line x1="1105.35" y1="665.87" x2="1146.50" y2="733.56"/>
<line x1="1105.35" y1="665.87" x2="1159.05" y2="615.63"/>
<line x1="1107.17" y1="787.14" x2="1126.42" y2="837.55"/>
<line x1="1107.17" y1="787.14" x2="1146.50" y2="733.56"/>
<line x1="1107.17" y1="787.14" x2="1184.89" y2="746.25"/>
<line x1="1108.56" y1="1048.07" x2="1126.36" y2="959.90"/>
<line x1="1108.56" y1="1048.07" x2="1133.62" y2="1072.68"/>
<line x1="1112.22" y1="1255.38" x2="1161.20" y2="1298.70"/>
<line x1="1112.22" y1="1255.38" x2="1172.51" y2="1230.11"/>
<line x1="1126.36" y1="959.90" x2="1133.62" y2="1072.68"/>
<line x1="1126.36" y1="959.90" x2="1153.48" y2="865.90"/>
<line x1="1126.36" y1="959.90" x2="1169.74" y2="940.04"/>
<line x1="1126.36" y1="959.90" x2="1235.27" y2="1007.57"/>
<line x1="1126.42" y1="837.55" x2="1153.48" y2="865.90"/>
<line x1="1126.42" y1="837.55" x2="1184.89" y2="746.25"/>
<line x1="1126.42" y1="837.55" x2="1222.29" y2="829.91"/>
<line x1="1132.07" y1="283.39" x2="1132.37" y2="402.06"/>
<line x1="1132.07" y1="283.39" x2="1156.05" y2="208.59"/>
<line x1="1132.07" y1="283.39" x2="1180.03" y2="235.74"/>
<line x1="1132.07" y1="283.39" x2="1242.95" y2="291.67"/>
<line x1="1132.37" y1="402.06" x2="1154.01" y2="448.91"/>
<line x1="1132.37" y1="402.06" x2="1212.47" y2="439.84"/>
<line x1="1132.37" y1="402.06" x2="1238.27" y2="414.31"/>
<line x1="1132.37" y1="402.06" x2="1242.95" y2="291.67"/>
<line x1="1133.62" y1="1072.68" x2="1210.00" y2="1149.43"/>
<line x1="1133.62" y1="1072.68" x2="1235.27" y2="1007.57"/>
<line x1="1133.62" y1="1072.68" x2="1249.06" y2="1055.43"/>
<line x1="1146.50" y1="733.56" x2="1159.05" y2="615.63"/>
<line x1="1146.50" y1="733.56" x2="1184.89" y2="746.25"/>
<line x1="1148.95" y1="553.77" x2="1154.01" y2="448.91"/>
<line x1="1148.95" y1="553.77" x2="1159.05" y2="615.63"/>
<line x1="1148.95" y1="553.77" x2="1190.57" y2="474.59"/>
<line x1="1148.95" y1="553.77" x2="1258.82" y2="498.57"/>
<line x1="1148.95" y1="553.77" x2="1274.06" y2="559.20"/>
<line x1="1153.48" y1="865.90" x2="1169.74" y2="940.04"/>
<line x1="1153.48" y1="865.90" x2="1222.29" y2="829.91"/>
<line x1="1153.48" y1="865.90" x2="1238.25" y2="920.03"/>
<line x1="1154.01" y1="448.91" x2="1190.57" y2="474.59"/>
<line x1="1154.01" y1="448.91" x2="1212.47" y2="439.84"/>
<line x1="1156.05" y1="208.59" x2="1164.19" y2="81.86"/>
<line x1="1156.05" y1="208.59" x2="1180.03" y2="235.74"/>
<line x1="1156.05" y1="208.59" x2="1212.33" y2="213.60"/>
<line x1="1159.05" y1="615.63" x2="1184.89" y2="746.25"/>
<line x1="1159.05" y1="615.63" x2="1252.79" y2="767.55"/>
<line x1="1159.05" y1="615.63" x2="1274.06" y2="559.20"/>
<line x1="1161.20" y1="1298.70" x2="1172.51" y2="1230.11"/>
<line x1="1161.20" y1="1298.70" x2="1196.12" y2="1370.00"/>
<line x1="1161.20" y1="1298.70" x2="1255.85" y2="1329.35"/>
<line x1="1161.20" y1="1298.70" x2="1259.16" y2="1295.29"/>
<line x1="1164.19" y1="81.86" x2="1212.33" y2="213.60"/>
<line x1="1164.19" y1="81.86" x2="1264.41" y2="130.95"/>
<line x1="1164.19" y1="81.86" x2="1298.19" y2="105.09"/>
<line x1="1164.19" y1="81.86" x2="1337.71" y2="110.14"/>
<line x1="1169.74" y1="940.04" x2="1235.27" y2="1007.57"/>
<line x1="1169.74" y1="940.04" x2="1238.25" y2="920.03"/>
<line x1="1172.51" y1="1230.11" x2="1210.00" y2="1149.43"/>
<line x1="1172.51" y1="1230.11" x2="1259.16" y2="1295.29"/>
<line x1="1172.51" y1="1230.11" x2="1293.17" y2="1244.25"/>
<line x1="1180.03" y1="235.74" x2="1212.33" y2="213.60"/>
<line x1="1180.03" y1="235.74" x2="1242.95" y2="291.67"/>
<line x1="1180.03" y1="235.74" x2="1253.08" y2="244.10"/>
<line x1="1184.89" y1="746.25" x2="1222.29" y2="829.91"/>
<line x1="1184.89" y1="746.25" x2="1252.79" y2="767.55"/>
<line x1="1190.57" y1="474.59" x2="1212.47" y2="439.84"/>
<line x1="1190.57" y1="474.59" x2="1258.82" y2="498.57"/>
<line x1="1196.12" y1="1370.00" x2="1255.85" y2="1329.35"/>
<line x1="1196.12" y1="1370.00" x2="1295.43" y2="1355.66"/>
<line x1="1210.00" y1="1149.43" x2="1249.06" y2="1055.43"/>
<line x1="1210.00" y1="1149.43" x2="1293.17" y2="1244.25"/>
<line x1="1210.00" y1="1149.43" x2="1300.80" y2="1087.62"/>
<line x1="1210.00" y1="1149.43" x2="1332.16" y2="1195.10"/>
<line x1="1212.33" y1="213.60" x2="1253.08" y2="244.10"/>
<line x1="1212.33" y1="213.60" x2="1264.41" y2="130.95"/>
<line x1="1212.33" y1="213.60" x2="1286.61" y2="230.01"/>
<line x1="1212.47" y1="439.84" x2="1238.27" y2="414.31"/>
<line x1="1212.47" y1="439.84" x2="1258.82" y2="498.57"/>
<line x1="1222.29" y1="829.91" x2="1238.25" y2="920.03"/>
<line x1="1222.29" y1="829.91" x2="1252.79" y2="767.55"/>
<line x1="1222.29" y1="829.91" x2="1274.54" y2="842.48"/>
<line x1="1235.27" y1="1007.57" x2="1238.25" y2="920.03"/>
<line x1="1235.27" y1="1007.57" x2="1249.06" y2="1055.43"/>
<line x1="1235.27" y1="1007.57" x2="1326.41" y2="1008.59"/>
<line x1="1238.25" y1="920.03" x2="1274.54" y2="842.48"/>
<line x1="1238.25" y1="920.03" x2="1326.41" y2="1008.59"/>
<line x1="1238.25" y1="920.03" x2="1350.57" y2="859.53"/>
<line x1="1238.27" y1="414.31" x2="1242.95" y2="291.67"/>
<line x1="1238.27" y1="414.31" x2="1258.82" y2="498.57"/>
<line x1="1238.27" y1="414.31" x2="1330.97" y2="424.99"/>
<line x1="1242.95" y1="291.67" x2="1253.08" y2="244.10"/>
<line x1="1242.95" y1="291.67" x2="1286.61" y2="230.01"/>
<line x1="1242.95" y1="291.67" x2="1330.97" y2="424.99"/>
<line x1="1249.06" y1="1055.43" x2="1300.80" y2="1087.62"/>
<line x1="1249.06" y1="1055.43" x2="1326.41" y2="1008.59"/>
<line x1="1252.79" y1="767.55" x2="1274.06" y2="559.20"/>
<line x1="1252.79" y1="767.55" x2="1274.54" y2="842.48"/>
<line x1="1252.79" y1="767.55" x2="1326.41" y2="585.01"/>
<line x1="1252.79" y1="767.55" x2="1329.54" y2="811.85"/>
<line x1="1252.79" y1="767.55" x2="1350.82" y2="741.50"/>
<line x1="1253.08" y1="244.10" x2="1286.61" y2="230.01"/>
<line x1="1255.85" y1="1329.35" x2="1259.16" y2="1295.29"/>
<line x1="1255.85" y1="1329.35" x2="1295.43" y2="1355.66"/>
<line x1="1255.85" y1="1329.35" x2="1304.76" y2="1308.91"/>
<line x1="1258.82" y1="498.57" x2="1274.06" y2="559.20"/>
<line x1="1258.82" y1="498.57" x2="1330.97" y2="424.99"/>
<line x1="1258.82" y1="498.57" x2="1346.85" y2="544.01"/>
<line x1="1259.16" y1="1295.29" x2="1293.17" y2="1244.25"/>
<line x1="1259.16" y1="1295.29" x2="1304.76" y2="1308.91"/>
<line x1="1264.41" y1="130.95" x2="1286.61" y2="230.01"/>
<line x1="1264.41" y1="130.95" x2="1298.19" y2="105.09"/>
<line x1="1264.41" y1="130.95" x2="1317.60" y2="143.57"/>
<line x1="1274.06" y1="559.20" x2="1326.41" y2="585.01"/>
<line x1="1274.06" y1="559.20" x2="1346.85" y2="544.01"/>
<line x1="1274.54" y1="842.48" x2="1329.54" y2="811.85"/>
<line x1="1274.54" y1="842.48" x2="1350.57" y2="859.53"/>
<line x1="1286.61" y1="230.01" x2="1317.60" y2="143.57"/>
<line x1="1286.61" y1="230.01" x2="1330.97" y2="424.99"/>
<line x1="1286.61" y1="230.01" x2="1369.41" y2="436.91"/>
<line x1="1293.17" y1="1244.25" x2="1304.76" y2="1308.91"/>
<line x1="1293.17" y1="1244.25" x2="1332.16" y2="1195.10"/>
<line x1="1293.17" y1="1244.25" x2="1365.78" y2="1314.89"/>
<line x1="1295.43" y1="1355.66" x2="1304.76" y2="1308.91"/>
<line x1="1295.43" y1="1355.66" x2="1365.78" y2="1314.89"/>
<line x1="1298.19" y1="105.09" x2="1317.60" y2="143.57"/>
<line x1="1298.19" y1="105.09" x2="1337.71" y2="110.14"/>
<line x1="1300.80" y1="1087.62" x2="1326.41" y2="1008.59"/>
<line x1="1300.80" y1="1087.62" x2="1332.16" y2="1195.10"/>
<line x1="1300.80" y1="1087.62" x2="1348.70" y2="1165.14"/>
<line x1="1300.80" y1="1087.62" x2="1368.07" y2="1022.99"/>
<line x1="1304.76" y1="1308.91" x2="1365.78" y2="1314.89"/>
<line x1="1317.60" y1="143.57" x2="1337.71" y2="110.14"/>
<line x1="1317.60" y1="143.57" x2="1369.41" y2="436.91"/>
<line x1="1326.41" y1="1008.59" x2="1350.57" y2="859.53"/>
<line x1="1326.41" y1="1008.59" x2="1368.07" y2="1022.99"/>
<line x1="1326.41" y1="585.01" x2="1346.85" y2="544.01"/>
<line x1="1326.41" y1="585.01" x2="1350.82" y2="741.50"/>
<line x1="1326.41" y1="585.01" x2="1370.00" y2="603.29"/>
<line x1="1329.54" y1="811.85" x2="1350.57" y2="859.53"/>
<line x1="1329.54" y1="811.85" x2="1350.82" y2="741.50"/>
<line x1="1330.97" y1="424.99" x2="1346.85" y2="544.01"/>
<line x1="1330.97" y1="424.99" x2="1369.41" y2="436.91"/>
<line x1="1332.16" y1="1195.10" x2="1348.70" y2="1165.14"/>
<line x1="1332.16" y1="1195.10" x2="1365.78" y2="1314.89"/>
<line x1="1337.71" y1="110.14" x2="1369.41" y2="436.91"/>
<line x1="1346.85" y1="544.01" x2="1369.41" y2="436.91"/>
<line x1="1346.85" y1="544.01" x2="1370.00" y2="603.29"/>
<line x1="1348.70" y1="1165.14" x2="1365.78" y2="1314.89"/>
<line x1="1348.70" y1="1165.14" x2="1368.07" y2="1022.99"/>
<line x1="1350.57" y1="859.53" x2="1350.82" y2="741.50"/>
<line x1="1350.57" y1="859.53" x2="1368.07" y2="1022.99"/>
<line x1="1350.57" y1="859.53" x2="1370.00" y2="603.29"/>
<line x1="1350.82" y1="741.50" x2="1370.00" y2="603.29"/>
<line x1="1365.78" y1="1314.89" x2="1368.07" y2="1022.99"/>
<line x1="1368.07" y1="1022.99" x2="1370.00" y2="603.29"/>
<line x1="1369.41" y1="436.91" x2="1370.00" y2="603.29"/>
</g>
<g fill="#3C5A49" stroke="#FBFCFD" stroke-width="2.0">
<circle cx="30.00" cy="503.12" r="3.5"/>
<circle cx="30.35" cy="112.26" r="3.5"/>
<circle cx="38.80" cy="551.55" r="3.5"/>
<circle cx="47.67" cy="1193.62" r="3.5"/>
<circle cx="60.24" cy="311.77" r="3.5"/>
<circle cx="66.41" cy="182.05" r="3.5"/>
<circle cx="70.25" cy="366.15" r="3.5"/>
<circle cx="71.38" cy="610.61" r="3.5"/>
<circle cx="74.83" cy="1151.07" r="3.5"/>
<circle cx="78.78" cy="1288.14" r="3.5"/>
<circle cx="81.96" cy="114.82" r="3.5"/>
<circle cx="83.64" cy="1029.38" r="3.5"/>
<circle cx="84.49" cy="413.21" r="3.5"/>
<circle cx="87.62" cy="939.86" r="3.5"/>
<circle cx="92.01" cy="836.15" r="3.5"/>
<circle cx="118.31" cy="340.22" r="3.5"/>
<circle cx="118.82" cy="658.78" r="3.5"/>
<circle cx="121.92" cy="870.32" r="3.5"/>
<circle cx="124.63" cy="1112.42" r="3.5"/>
<circle cx="130.55" cy="56.12" r="3.5"/>
<circle cx="138.95" cy="551.74" r="3.5"/>
<circle cx="140.50" cy="138.30" r="3.5"/>
<circle cx="147.38" cy="453.56" r="3.5"/>
<circle cx="151.59" cy="627.93" r="3.5"/>
<circle cx="152.53" cy="1261.57" r="3.5"/>
<circle cx="152.66" cy="914.07" r="3.5"/>
<circle cx="163.65" cy="774.38" r="3.5"/>
<circle cx="163.66" cy="973.53" r="3.5"/>
<circle cx="170.22" cy="839.78" r="3.5"/>
<circle cx="178.32" cy="418.50" r="3.5"/>
<circle cx="181.77" cy="323.58" r="3.5"/>
<circle cx="190.78" cy="1160.30" r="3.5"/>
<circle cx="200.89" cy="390.30" r="3.5"/>
<circle cx="201.98" cy="603.00" r="3.5"/>
<circle cx="202.31" cy="171.84" r="3.5"/>
<circle cx="208.27" cy="1009.37" r="3.5"/>
<circle cx="228.30" cy="416.34" r="3.5"/>
<circle cx="231.84" cy="300.67" r="3.5"/>
<circle cx="251.39" cy="975.35" r="3.5"/>
<circle cx="264.41" cy="1066.36" r="3.5"/>
<circle cx="265.71" cy="37.14" r="3.5"/>
<circle cx="271.27" cy="435.96" r="3.5"/>
<circle cx="274.25" cy="382.56" r="3.5"/>
<circle cx="275.04" cy="1247.34" r="3.5"/>
<circle cx="275.80" cy="303.09" r="3.5"/>
<circle cx="279.68" cy="1151.06" r="3.5"/>
<circle cx="282.89" cy="187.40" r="3.5"/>
<circle cx="285.85" cy="962.69" r="3.5"/>
<circle cx="296.50" cy="1354.57" r="3.5"/>
<circle cx="302.17" cy="648.05" r="3.5"/>
<circle cx="307.04" cy="498.02" r="3.5"/>
<circle cx="308.73" cy="802.16" r="3.5"/>
<circle cx="310.05" cy="1278.86" r="3.5"/>
<circle cx="310.25" cy="385.50" r="3.5"/>
<circle cx="310.33" cy="906.63" r="3.5"/>
<circle cx="317.67" cy="1005.34" r="3.5"/>
<circle cx="323.28" cy="1147.34" r="3.5"/>
<circle cx="334.88" cy="954.97" r="3.5"/>
<circle cx="337.56" cy="851.73" r="3.5"/>
<circle cx="339.58" cy="1352.03" r="3.5"/>
<circle cx="342.10" cy="64.95" r="3.5"/>
<circle cx="346.31" cy="1208.45" r="3.5"/>
<circle cx="346.42" cy="403.63" r="3.5"/>
<circle cx="346.59" cy="131.76" r="3.5"/>
<circle cx="348.46" cy="458.31" r="3.5"/>
<circle cx="351.53" cy="779.05" r="3.5"/>
<circle cx="357.36" cy="1011.45" r="3.5"/>
<circle cx="357.66" cy="557.06" r="3.5"/>
<circle cx="366.41" cy="373.64" r="3.5"/>
<circle cx="367.19" cy="1097.95" r="3.5"/>
<circle cx="370.51" cy="1286.29" r="3.5"/>
<circle cx="373.33" cy="1238.04" r="3.5"/>
<circle cx="373.59" cy="809.39" r="3.5"/>
<circle cx="387.80" cy="32.72" r="3.5"/>
<circle cx="394.99" cy="154.89" r="3.5"/>
<circle cx="400.19" cy="557.76" r="3.5"/>
<circle cx="404.97" cy="741.98" r="3.5"/>
<circle cx="405.25" cy="1330.06" r="3.5"/>
<circle cx="423.69" cy="842.84" r="3.5"/>
<circle cx="424.44" cy="584.07" r="3.5"/>
<circle cx="425.04" cy="1082.14" r="3.5"/>
<circle cx="426.11" cy="1031.94" r="3.5"/>
<circle cx="426.57" cy="534.48" r="3.5"/>
<circle cx="427.75" cy="630.61" r="3.5"/>
<circle cx="438.87" cy="899.71" r="3.5"/>
<circle cx="439.65" cy="991.95" r="3.5"/>
<circle cx="447.78" cy="1246.96" r="3.5"/>
<circle cx="461.44" cy="929.90" r="3.5"/>
<circle cx="465.16" cy="186.54" r="3.5"/>
<circle cx="468.11" cy="396.18" r="3.5"/>
<circle cx="470.27" cy="470.42" r="3.5"/>
<circle cx="473.09" cy="1039.25" r="3.5"/>
<circle cx="473.22" cy="703.94" r="3.5"/>
<circle cx="473.76" cy="92.75" r="3.5"/>
<circle cx="476.54" cy="793.60" r="3.5"/>
<circle cx="477.74" cy="756.35" r="3.5"/>
<circle cx="480.36" cy="1230.03" r="3.5"/>
<circle cx="481.56" cy="542.68" r="3.5"/>
<circle cx="493.01" cy="1329.07" r="3.5"/>
<circle cx="496.43" cy="909.76" r="3.5"/>
<circle cx="497.84" cy="285.68" r="3.5"/>
<circle cx="499.92" cy="578.11" r="3.5"/>
<circle cx="506.22" cy="235.10" r="3.5"/>
<circle cx="506.49" cy="736.57" r="3.5"/>
<circle cx="507.68" cy="655.33" r="3.5"/>
<circle cx="508.09" cy="1209.43" r="3.5"/>
<circle cx="511.25" cy="471.60" r="3.5"/>
<circle cx="513.53" cy="1016.12" r="3.5"/>
<circle cx="520.27" cy="1070.68" r="3.5"/>
<circle cx="521.76" cy="1133.18" r="3.5"/>
<circle cx="527.61" cy="1245.28" r="3.5"/>
<circle cx="535.56" cy="49.46" r="3.5"/>
<circle cx="539.01" cy="556.60" r="3.5"/>
<circle cx="547.20" cy="492.33" r="3.5"/>
<circle cx="547.22" cy="616.54" r="3.5"/>
<circle cx="552.87" cy="706.21" r="3.5"/>
<circle cx="554.81" cy="1140.52" r="3.5"/>
<circle cx="557.40" cy="366.20" r="3.5"/>
<circle cx="559.46" cy="1295.73" r="3.5"/>
<circle cx="559.69" cy="872.67" r="3.5"/>
<circle cx="567.22" cy="587.68" r="3.5"/>
<circle cx="581.65" cy="61.11" r="3.5"/>
<circle cx="582.49" cy="437.53" r="3.5"/>
<circle cx="586.31" cy="1219.94" r="3.5"/>
<circle cx="589.01" cy="1079.95" r="3.5"/>
<circle cx="594.42" cy="728.40" r="3.5"/>
<circle cx="598.27" cy="1352.48" r="3.5"/>
<circle cx="598.36" cy="637.12" r="3.5"/>
<circle cx="611.87" cy="837.55" r="3.5"/>
<circle cx="613.04" cy="155.87" r="3.5"/>
<circle cx="618.52" cy="595.61" r="3.5"/>
<circle cx="631.03" cy="660.02" r="3.5"/>
<circle cx="631.89" cy="720.92" r="3.5"/>
<circle cx="633.68" cy="241.63" r="3.5"/>
<circle cx="634.68" cy="459.29" r="3.5"/>
<circle cx="638.37" cy="1024.17" r="3.5"/>
<circle cx="642.79" cy="1231.72" r="3.5"/>
<circle cx="643.42" cy="864.43" r="3.5"/>
<circle cx="646.09" cy="62.56" r="3.5"/>
<circle cx="668.10" cy="169.76" r="3.5"/>
<circle cx="671.25" cy="835.67" r="3.5"/>
<circle cx="673.76" cy="501.60" r="3.5"/>
<circle cx="674.82" cy="328.55" r="3.5"/>
<circle cx="675.86" cy="1249.47" r="3.5"/>
<circle cx="676.56" cy="421.83" r="3.5"/>
<circle cx="681.42" cy="1012.71" r="3.5"/>
<circle cx="682.87" cy="648.02" r="3.5"/>
<circle cx="683.38" cy="58.05" r="3.5"/>
<circle cx="691.83" cy="725.08" r="3.5"/>
<circle cx="693.00" cy="1349.20" r="3.5"/>
<circle cx="700.12" cy="1064.16" r="3.5"/>
<circle cx="704.28" cy="561.89" r="3.5"/>
<circle cx="716.87" cy="449.24" r="3.5"/>
<circle cx="719.11" cy="1176.48" r="3.5"/>
<circle cx="721.67" cy="198.58" r="3.5"/>
<circle cx="723.56" cy="53.65" r="3.5"/>
<circle cx="725.05" cy="839.23" r="3.5"/>
<circle cx="729.20" cy="606.92" r="3.5"/>
<circle cx="734.49" cy="1342.50" r="3.5"/>
<circle cx="739.32" cy="1262.10" r="3.5"/>
<circle cx="747.01" cy="1152.22" r="3.5"/>
<circle cx="747.33" cy="865.90" r="3.5"/>
<circle cx="748.28" cy="408.03" r="3.5"/>
<circle cx="754.12" cy="700.19" r="3.5"/>
<circle cx="754.54" cy="369.24" r="3.5"/>
<circle cx="754.66" cy="534.82" r="3.5"/>
<circle cx="758.37" cy="959.52" r="3.5"/>
<circle cx="758.78" cy="1065.72" r="3.5"/>
<circle cx="766.51" cy="763.04" r="3.5"/>
<circle cx="773.37" cy="563.93" r="3.5"/>
<circle cx="779.53" cy="76.16" r="3.5"/>
<circle cx="784.34" cy="208.26" r="3.5"/>
<circle cx="789.94" cy="1309.37" r="3.5"/>
<circle cx="794.03" cy="259.26" r="3.5"/>
<circle cx="797.25" cy="828.98" r="3.5"/>
<circle cx="805.33" cy="783.90" r="3.5"/>
<circle cx="815.62" cy="146.38" r="3.5"/>
<circle cx="819.87" cy="948.58" r="3.5"/>
<circle cx="821.97" cy="1036.92" r="3.5"/>
<circle cx="825.77" cy="630.51" r="3.5"/>
<circle cx="826.12" cy="397.76" r="3.5"/>
<circle cx="831.35" cy="325.74" r="3.5"/>
<circle cx="833.49" cy="1357.09" r="3.5"/>
<circle cx="834.06" cy="106.48" r="3.5"/>
<circle cx="839.32" cy="820.91" r="3.5"/>
<circle cx="841.52" cy="1186.25" r="3.5"/>
<circle cx="855.67" cy="986.57" r="3.5"/>
<circle cx="856.88" cy="454.38" r="3.5"/>
<circle cx="859.07" cy="40.15" r="3.5"/>
<circle cx="860.29" cy="1251.73" r="3.5"/>
<circle cx="863.54" cy="1311.86" r="3.5"/>
<circle cx="869.14" cy="744.28" r="3.5"/>
<circle cx="873.06" cy="1366.52" r="3.5"/>
<circle cx="884.40" cy="689.74" r="3.5"/>
<circle cx="884.50" cy="208.15" r="3.5"/>
<circle cx="884.82" cy="556.34" r="3.5"/>
<circle cx="887.01" cy="117.55" r="3.5"/>
<circle cx="888.47" cy="319.05" r="3.5"/>
<circle cx="896.19" cy="903.05" r="3.5"/>
<circle cx="898.53" cy="1145.47" r="3.5"/>
<circle cx="902.47" cy="749.06" r="3.5"/>
<circle cx="903.96" cy="1181.50" r="3.5"/>
<circle cx="924.17" cy="474.70" r="3.5"/>
<circle cx="928.29" cy="318.15" r="3.5"/>
<circle cx="937.29" cy="247.77" r="3.5"/>
<circle cx="938.74" cy="87.74" r="3.5"/>
<circle cx="944.03" cy="521.05" r="3.5"/>
<circle cx="947.47" cy="1049.60" r="3.5"/>
<circle cx="954.51" cy="797.92" r="3.5"/>
<circle cx="958.83" cy="1272.22" r="3.5"/>
<circle cx="959.80" cy="721.97" r="3.5"/>
<circle cx="961.52" cy="391.78" r="3.5"/>
<circle cx="963.93" cy="616.56" r="3.5"/>
<circle cx="965.83" cy="35.29" r="3.5"/>
<circle cx="970.44" cy="998.74" r="3.5"/>
<circle cx="976.79" cy="865.55" r="3.5"/>
<circle cx="981.93" cy="1189.90" r="3.5"/>
<circle cx="984.94" cy="1077.53" r="3.5"/>
<circle cx="998.10" cy="373.47" r="3.5"/>
<circle cx="998.98" cy="128.53" r="3.5"/>
<circle cx="999.52" cy="1297.68" r="3.5"/>
<circle cx="1010.33" cy="788.03" r="3.5"/>
<circle cx="1019.44" cy="588.44" r="3.5"/>
<circle cx="1019.82" cy="857.20" r="3.5"/>
<circle cx="1025.68" cy="707.74" r="3.5"/>
<circle cx="1029.37" cy="267.82" r="3.5"/>
<circle cx="1034.09" cy="186.25" r="3.5"/>
<circle cx="1037.03" cy="655.43" r="3.5"/>
<circle cx="1041.51" cy="1272.03" r="3.5"/>
<circle cx="1044.35" cy="1128.60" r="3.5"/>
<circle cx="1055.11" cy="1350.43" r="3.5"/>
<circle cx="1060.26" cy="377.77" r="3.5"/>
<circle cx="1062.08" cy="604.83" r="3.5"/>
<circle cx="1065.70" cy="498.18" r="3.5"/>
<circle cx="1066.56" cy="823.93" r="3.5"/>
<circle cx="1078.13" cy="954.93" r="3.5"/>
<circle cx="1079.50" cy="1308.86" r="3.5"/>
<circle cx="1091.14" cy="417.59" r="3.5"/>
<circle cx="1096.67" cy="559.01" r="3.5"/>
<circle cx="1105.35" cy="665.87" r="3.5"/>
<circle cx="1107.17" cy="787.14" r="3.5"/>
<circle cx="1108.56" cy="1048.07" r="3.5"/>
<circle cx="1112.22" cy="1255.38" r="3.5"/>
<circle cx="1126.36" cy="959.90" r="3.5"/>
<circle cx="1126.42" cy="837.55" r="3.5"/>
<circle cx="1132.07" cy="283.39" r="3.5"/>
<circle cx="1132.37" cy="402.06" r="3.5"/>
<circle cx="1133.62" cy="1072.68" r="3.5"/>
<circle cx="1146.50" cy="733.56" r="3.5"/>
<circle cx="1148.95" cy="553.77" r="3.5"/>
<circle cx="1153.48" cy="865.90" r="3.5"/>
<circle cx="1154.01" cy="448.91" r="3.5"/>
<circle cx="1156.05" cy="208.59" r="3.5"/>
<circle cx="1159.05" cy="615.63" r="3.5"/>
<circle cx="1161.20" cy="1298.70" r="3.5"/>
<circle cx="1164.19" cy="81.86" r="3.5"/>
<circle cx="1169.74" cy="940.04" r="3.5"/>
<circle cx="1172.51" cy="1230.11" r="3.5"/>
<circle cx="1180.03" cy="235.74" r="3.5"/>
<circle cx="1184.89" cy="746.25" r="3.5"/>
<circle cx="1190.57" cy="474.59" r="3.5"/>
<circle cx="1196.12" cy="1370.00" r="3.5"/>
<circle cx="1210.00" cy="1149.43" r="3.5"/>
<circle cx="1212.33" cy="213.60" r="3.5"/>
<circle cx="1212.47" cy="439.84" r="3.5"/>
<circle cx="1222.29" cy="829.91" r="3.5"/>
<circle cx="1235.27" cy="1007.57" r="3.5"/>
<circle cx="1238.25" cy="920.03" r="3.5"/>
<circle cx="1238.27" cy="414.31" r="3.5"/>
<circle cx="1242.95" cy="291.67" r="3.5"/>
<circle cx="1249.06" cy="1055.43" r="3.5"/>
<circle cx="1252.79" cy="767.55" r="3.5"/>
<circle cx="1253.08" cy="244.10" r="3.5"/>
<circle cx="1255.85" cy="1329.35" r="3.5"/>
<circle cx="1258.82" cy="498.57" r="3.5"/>
<circle cx="1259.16" cy="1295.29" r="3.5"/>
<circle cx="1264.41" cy="130.95" r="3.5"/>
<circle cx="1274.06" cy="559.20" r="3.5"/>
<circle cx="1274.54" cy="842.48" r="3.5"/>
<circle cx="1286.61" cy="230.01" r="3.5"/>
<circle cx="1293.17" cy="1244.25" r="3.5"/>
<circle cx="1295.43" cy="1355.66" r="3.5"/>
<circle cx="1298.19" cy="105.09" r="3.5"/>
<circle cx="1300.80" cy="1087.62" r="3.5"/>
<circle cx="1304.76" cy="1308.91" r="3.5"/>
<circle cx="1317.60" cy="143.57" r="3.5"/>
<circle cx="1326.41" cy="1008.59" r="3.5"/>
<circle cx="1326.41" cy="585.01" r="3.5"/>
<circle cx="1329.54" cy="811.85" r="3.5"/>
<circle cx="1330.97" cy="424.99" r="3.5"/>
<circle cx="1332.16" cy="1195.10" r="3.5"/>
<circle cx="1337.71" cy="110.14" r="3.5"/>
<circle cx="1346.85" cy="544.01" r="3.5"/>
<circle cx="1348.70" cy="1165.14" r="3.5"/>
<circle cx="1350.57" cy="859.53" r="3.5"/>
<circle cx="1350.82" cy="741.50" r="3.5"/>
<circle cx="1365.78" cy="1314.89" r="3.5"/>
<circle cx="1368.07" cy="1022.99" r="3.5"/>
<circle cx="1369.41" cy="436.91" r="3.5"/>
<circle cx="1370.00" cy="603.29" r="3.5"/>
</g>
</g>
</svg>
