<svg xmlns="http://www.w3.org/2000/svg" width="960" height="560" viewBox="0 0 960 560">
  <rect width="960" height="560" fill="#f8fafc"/>
  <text x="92" y="36" font-family="system-ui,sans-serif" font-size="22" font-weight="700" fill="#0f172a">Planar benchmark phase medians</text>
  <text x="92" y="58" font-family="system-ui,sans-serif" font-size="12" fill="#475569">bundle planar-standard-20260715-ab00798 · successful repetitions only</text>
  <line x1="92" y1="464" x2="924" y2="464" stroke="#64748b"/>
  <line x1="92" y1="76" x2="92" y2="464" stroke="#64748b"/>
  <line x1="92" y1="464.00" x2="924" y2="464.00" stroke="#e2e8f0"/>
  <text x="82" y="468.00" text-anchor="end" font-family="ui-monospace,monospace" font-size="11" fill="#475569">0.0000s</text>
  <line x1="92" y1="386.40" x2="924" y2="386.40" stroke="#e2e8f0"/>
  <text x="82" y="390.40" text-anchor="end" font-family="ui-monospace,monospace" font-size="11" fill="#475569">0.0306s</text>
  <line x1="92" y1="308.80" x2="924" y2="308.80" stroke="#e2e8f0"/>
  <text x="82" y="312.80" text-anchor="end" font-family="ui-monospace,monospace" font-size="11" fill="#475569">0.0612s</text>
  <line x1="92" y1="231.20" x2="924" y2="231.20" stroke="#e2e8f0"/>
  <text x="82" y="235.20" text-anchor="end" font-family="ui-monospace,monospace" font-size="11" fill="#475569">0.0919s</text>
  <line x1="92" y1="153.60" x2="924" y2="153.60" stroke="#e2e8f0"/>
  <text x="82" y="157.60" text-anchor="end" font-family="ui-monospace,monospace" font-size="11" fill="#475569">0.1225s</text>
  <line x1="92" y1="76.00" x2="924" y2="76.00" stroke="#e2e8f0"/>
  <text x="82" y="80.00" text-anchor="end" font-family="ui-monospace,monospace" font-size="11" fill="#475569">0.1531s</text>
  <rect x="126.94" y="462.08" width="96.51" height="1.92" fill="#2563eb"><title>triangulation: 0.000755746s</title></rect>
  <rect x="126.94" y="462.06" width="96.51" height="0.03" fill="#14b8a6"><title>voronoi: 0.000010799s</title></rect>
  <rect x="126.94" y="461.64" width="96.51" height="0.42" fill="#f59e0b"><title>validation: 0.000164656s</title></rect>
  <text x="175.20" y="453.64" text-anchor="middle" font-family="ui-monospace,monospace" font-size="11" fill="#0f172a">0.000934s</text>
  <text x="175.20" y="487" text-anchor="middle" font-family="system-ui,sans-serif" font-size="12" fill="#0f172a">uniform-n100</text>
  <text x="175.20" y="504" text-anchor="middle" font-family="system-ui,sans-serif" font-size="10" fill="#64748b">10/10 ok</text>
  <rect x="293.34" y="460.07" width="96.51" height="3.93" fill="#2563eb"><title>triangulation: 0.001552288s</title></rect>
  <rect x="293.34" y="460.02" width="96.51" height="0.04" fill="#14b8a6"><title>voronoi: 0.000017447s</title></rect>
  <rect x="293.34" y="457.48" width="96.51" height="2.54" fill="#f59e0b"><title>validation: 0.001002980s</title></rect>
  <text x="341.60" y="449.48" text-anchor="middle" font-family="ui-monospace,monospace" font-size="11" fill="#0f172a">0.002631s</text>
  <text x="341.60" y="487" text-anchor="middle" font-family="system-ui,sans-serif" font-size="12" fill="#0f172a">uniform-n300</text>
  <text x="341.60" y="504" text-anchor="middle" font-family="system-ui,sans-serif" font-size="10" fill="#64748b">10/10 ok</text>
  <rect x="459.74" y="431.02" width="96.51" height="32.98" fill="#2563eb"><title>triangulation: 0.013015266s</title></rect>
  <rect x="459.74" y="430.88" width="96.51" height="0.13" fill="#14b8a6"><title>voronoi: 0.000052487s</title></rect>
  <rect x="459.74" y="394.59" width="96.51" height="36.29" fill="#f59e0b"><title>validation: 0.014319413s</title></rect>
  <text x="508.00" y="386.59" text-anchor="middle" font-family="ui-monospace,monospace" font-size="11" fill="#0f172a">0.027934s</text>
  <text x="508.00" y="487" text-anchor="middle" font-family="system-ui,sans-serif" font-size="12" fill="#0f172a">uniform-n1000</text>
  <text x="508.00" y="504" text-anchor="middle" font-family="system-ui,sans-serif" font-size="10" fill="#64748b">10/10 ok</text>
  <rect x="626.14" y="418.60" width="96.51" height="45.40" fill="#2563eb"><title>triangulation: 0.017914104s</title></rect>
  <rect x="626.14" y="418.47" width="96.51" height="0.13" fill="#14b8a6"><title>voronoi: 0.000051969s</title></rect>
  <rect x="626.14" y="360.31" width="96.51" height="58.16" fill="#f59e0b"><title>validation: 0.022948530s</title></rect>
  <text x="674.40" y="352.31" text-anchor="middle" font-family="ui-monospace,monospace" font-size="11" fill="#0f172a">0.041118s</text>
  <text x="674.40" y="487" text-anchor="middle" font-family="system-ui,sans-serif" font-size="12" fill="#0f172a">uniform-n1500</text>
  <text x="674.40" y="504" text-anchor="middle" font-family="system-ui,sans-serif" font-size="10" fill="#64748b">10/10 ok</text>
  <rect x="792.54" y="297.97" width="96.51" height="166.03" fill="#2563eb"><title>triangulation: 0.065514568s</title></rect>
  <rect x="792.54" y="297.75" width="96.51" height="0.22" fill="#14b8a6"><title>voronoi: 0.000088642s</title></rect>
  <rect x="792.54" y="64.22" width="96.51" height="233.53" fill="#f59e0b"><title>validation: 0.092149842s</title></rect>
  <text x="840.80" y="88.00" text-anchor="middle" font-family="ui-monospace,monospace" font-size="11" fill="#0f172a">0.153104s</text>
  <text x="840.80" y="487" text-anchor="middle" font-family="system-ui,sans-serif" font-size="12" fill="#0f172a">uniform-n2500</text>
  <text x="840.80" y="504" text-anchor="middle" font-family="system-ui,sans-serif" font-size="10" fill="#64748b">10/10 ok</text>
  <rect x="92" y="525" width="12" height="12" rx="2" fill="#2563eb"/>
  <text x="110" y="535" font-family="system-ui,sans-serif" font-size="12" fill="#334155">triangulation</text>
  <rect x="242" y="525" width="12" height="12" rx="2" fill="#14b8a6"/>
  <text x="260" y="535" font-family="system-ui,sans-serif" font-size="12" fill="#334155">voronoi</text>
  <rect x="392" y="525" width="12" height="12" rx="2" fill="#f59e0b"/>
  <text x="410" y="535" font-family="system-ui,sans-serif" font-size="12" fill="#334155">validation</text>
</svg>
