<svg xmlns="http://www.w3.org/2000/svg" width="960" height="560" viewBox="0 0 960 560">
  <rect width="960" height="560" fill="#f8fafc"/>
  <text x="92" y="36" font-family="system-ui,sans-serif" font-size="22" font-weight="700" fill="#0f172a">Planar benchmark phase medians</text>
  <text x="92" y="58" font-family="system-ui,sans-serif" font-size="12" fill="#475569">bundle planar-headline-20260715-ab00798 · successful repetitions only</text>
  <line x1="92" y1="464" x2="924" y2="464" stroke="#64748b"/>
  <line x1="92" y1="76" x2="92" y2="464" stroke="#64748b"/>
  <line x1="92" y1="464.00" x2="924" y2="464.00" stroke="#e2e8f0"/>
  <text x="82" y="468.00" text-anchor="end" font-family="ui-monospace,monospace" font-size="11" fill="#475569">0.0000s</text>
  <line x1="92" y1="386.40" x2="924" y2="386.40" stroke="#e2e8f0"/>
  <text x="82" y="390.40" text-anchor="end" font-family="ui-monospace,monospace" font-size="11" fill="#475569">0.0093s</text>
  <line x1="92" y1="308.80" x2="924" y2="308.80" stroke="#e2e8f0"/>
  <text x="82" y="312.80" text-anchor="end" font-family="ui-monospace,monospace" font-size="11" fill="#475569">0.0185s</text>
  <line x1="92" y1="231.20" x2="924" y2="231.20" stroke="#e2e8f0"/>
  <text x="82" y="235.20" text-anchor="end" font-family="ui-monospace,monospace" font-size="11" fill="#475569">0.0278s</text>
  <line x1="92" y1="153.60" x2="924" y2="153.60" stroke="#e2e8f0"/>
  <text x="82" y="157.60" text-anchor="end" font-family="ui-monospace,monospace" font-size="11" fill="#475569">0.0371s</text>
  <line x1="92" y1="76.00" x2="924" y2="76.00" stroke="#e2e8f0"/>
  <text x="82" y="80.00" text-anchor="end" font-family="ui-monospace,monospace" font-size="11" fill="#475569">0.0463s</text>
  <rect x="450.00" y="289.00" width="116.00" height="175.00" fill="#2563eb"><title>triangulation: 0.020897590s</title></rect>
  <rect x="450.00" y="288.48" width="116.00" height="0.52" fill="#14b8a6"><title>voronoi: 0.000061893s</title></rect>
  <rect x="450.00" y="75.08" width="116.00" height="213.40" fill="#f59e0b"><title>validation: 0.025483047s</title></rect>
  <text x="508.00" y="88.00" text-anchor="middle" font-family="ui-monospace,monospace" font-size="11" fill="#0f172a">0.046332s</text>
  <text x="508.00" y="487" text-anchor="middle" font-family="system-ui,sans-serif" font-size="12" fill="#0f172a">uniform-n1500</text>
  <text x="508.00" y="504" text-anchor="middle" font-family="system-ui,sans-serif" font-size="10" fill="#64748b">30/30 ok</text>
  <rect x="92" y="525" width="12" height="12" rx="2" fill="#2563eb"/>
  <text x="110" y="535" font-family="system-ui,sans-serif" font-size="12" fill="#334155">triangulation</text>
  <rect x="242" y="525" width="12" height="12" rx="2" fill="#14b8a6"/>
  <text x="260" y="535" font-family="system-ui,sans-serif" font-size="12" fill="#334155">voronoi</text>
  <rect x="392" y="525" width="12" height="12" rx="2" fill="#f59e0b"/>
  <text x="410" y="535" font-family="system-ui,sans-serif" font-size="12" fill="#334155">validation</text>
</svg>
