<svg xmlns="http://www.w3.org/2000/svg" width="960" height="560" viewBox="0 0 960 560">
  <rect width="960" height="560" fill="#f8fafc"/>
  <text x="92" y="36" font-family="system-ui,sans-serif" font-size="22" font-weight="700" fill="#0f172a">Planar benchmark phase medians</text>
  <text x="92" y="58" font-family="system-ui,sans-serif" font-size="12" fill="#475569">bundle planar-standard-20260715-1863189 · successful repetitions only</text>
  <line x1="92" y1="464" x2="924" y2="464" stroke="#64748b"/>
  <line x1="92" y1="76" x2="92" y2="464" stroke="#64748b"/>
  <line x1="92" y1="464.00" x2="924" y2="464.00" stroke="#e2e8f0"/>
  <text x="82" y="468.00" text-anchor="end" font-family="ui-monospace,monospace" font-size="11" fill="#475569">0.0000s</text>
  <line x1="92" y1="386.40" x2="924" y2="386.40" stroke="#e2e8f0"/>
  <text x="82" y="390.40" text-anchor="end" font-family="ui-monospace,monospace" font-size="11" fill="#475569">0.0216s</text>
  <line x1="92" y1="308.80" x2="924" y2="308.80" stroke="#e2e8f0"/>
  <text x="82" y="312.80" text-anchor="end" font-family="ui-monospace,monospace" font-size="11" fill="#475569">0.0432s</text>
  <line x1="92" y1="231.20" x2="924" y2="231.20" stroke="#e2e8f0"/>
  <text x="82" y="235.20" text-anchor="end" font-family="ui-monospace,monospace" font-size="11" fill="#475569">0.0648s</text>
  <line x1="92" y1="153.60" x2="924" y2="153.60" stroke="#e2e8f0"/>
  <text x="82" y="157.60" text-anchor="end" font-family="ui-monospace,monospace" font-size="11" fill="#475569">0.0864s</text>
  <line x1="92" y1="76.00" x2="924" y2="76.00" stroke="#e2e8f0"/>
  <text x="82" y="80.00" text-anchor="end" font-family="ui-monospace,monospace" font-size="11" fill="#475569">0.1080s</text>
  <rect x="126.94" y="460.29" width="96.51" height="3.71" fill="#2563eb"><title>triangulation: 0.001032670s</title></rect>
  <rect x="126.94" y="460.24" width="96.51" height="0.05" fill="#14b8a6"><title>voronoi: 0.000014610s</title></rect>
  <rect x="126.94" y="459.40" width="96.51" height="0.83" fill="#f59e0b"><title>validation: 0.000232020s</title></rect>
  <text x="175.20" y="451.40" text-anchor="middle" font-family="ui-monospace,monospace" font-size="11" fill="#0f172a">0.001316s</text>
  <text x="175.20" y="487" text-anchor="middle" font-family="system-ui,sans-serif" font-size="12" fill="#0f172a">uniform-n100</text>
  <text x="175.20" y="504" text-anchor="middle" font-family="system-ui,sans-serif" font-size="10" fill="#64748b">10/10 ok</text>
  <rect x="293.34" y="456.76" width="96.51" height="7.24" fill="#2563eb"><title>triangulation: 0.002015968s</title></rect>
  <rect x="293.34" y="456.67" width="96.51" height="0.08" fill="#14b8a6"><title>voronoi: 0.000023388s</title></rect>
  <rect x="293.34" y="451.69" width="96.51" height="4.98" fill="#f59e0b"><title>validation: 0.001385610s</title></rect>
  <text x="341.60" y="443.69" text-anchor="middle" font-family="ui-monospace,monospace" font-size="11" fill="#0f172a">0.003396s</text>
  <text x="341.60" y="487" text-anchor="middle" font-family="system-ui,sans-serif" font-size="12" fill="#0f172a">uniform-n300</text>
  <text x="341.60" y="504" text-anchor="middle" font-family="system-ui,sans-serif" font-size="10" fill="#64748b">10/10 ok</text>
  <rect x="459.74" y="432.24" width="96.51" height="31.76" fill="#2563eb"><title>triangulation: 0.008840705s</title></rect>
  <rect x="459.74" y="432.13" width="96.51" height="0.11" fill="#14b8a6"><title>voronoi: 0.000030294s</title></rect>
  <rect x="459.74" y="395.89" width="96.51" height="36.24" fill="#f59e0b"><title>validation: 0.010085792s</title></rect>
  <text x="508.00" y="387.89" text-anchor="middle" font-family="ui-monospace,monospace" font-size="11" fill="#0f172a">0.018839s</text>
  <text x="508.00" y="487" text-anchor="middle" font-family="system-ui,sans-serif" font-size="12" fill="#0f172a">uniform-n1000</text>
  <text x="508.00" y="504" text-anchor="middle" font-family="system-ui,sans-serif" font-size="10" fill="#64748b">10/10 ok</text>
  <rect x="626.14" y="391.16" width="96.51" height="72.84" fill="#2563eb"><title>triangulation: 0.020273801s</title></rect>
  <rect x="626.14" y="390.96" width="96.51" height="0.20" fill="#14b8a6"><title>voronoi: 0.000055409s</title></rect>
  <rect x="626.14" y="290.63" width="96.51" height="100.33" fill="#f59e0b"><title>validation: 0.027924283s</title></rect>
  <text x="674.40" y="282.63" text-anchor="middle" font-family="ui-monospace,monospace" font-size="11" fill="#0f172a">0.047900s</text>
  <text x="674.40" y="487" text-anchor="middle" font-family="system-ui,sans-serif" font-size="12" fill="#0f172a">uniform-n1500</text>
  <text x="674.40" y="504" text-anchor="middle" font-family="system-ui,sans-serif" font-size="10" fill="#64748b">10/10 ok</text>
  <rect x="792.54" y="299.36" width="96.51" height="164.64" fill="#2563eb"><title>triangulation: 0.045822113s</title></rect>
  <rect x="792.54" y="299.11" width="96.51" height="0.26" fill="#14b8a6"><title>voronoi: 0.000071017s</title></rect>
  <rect x="792.54" y="74.61" width="96.51" height="224.49" fill="#f59e0b"><title>validation: 0.062480701s</title></rect>
  <text x="840.80" y="88.00" text-anchor="middle" font-family="ui-monospace,monospace" font-size="11" fill="#0f172a">0.107988s</text>
  <text x="840.80" y="487" text-anchor="middle" font-family="system-ui,sans-serif" font-size="12" fill="#0f172a">uniform-n2500</text>
  <text x="840.80" y="504" text-anchor="middle" font-family="system-ui,sans-serif" font-size="10" fill="#64748b">10/10 ok</text>
  <rect x="92" y="525" width="12" height="12" rx="2" fill="#2563eb"/>
  <text x="110" y="535" font-family="system-ui,sans-serif" font-size="12" fill="#334155">triangulation</text>
  <rect x="242" y="525" width="12" height="12" rx="2" fill="#14b8a6"/>
  <text x="260" y="535" font-family="system-ui,sans-serif" font-size="12" fill="#334155">voronoi</text>
  <rect x="392" y="525" width="12" height="12" rx="2" fill="#f59e0b"/>
  <text x="410" y="535" font-family="system-ui,sans-serif" font-size="12" fill="#334155">validation</text>
</svg>
